<?xml version="1.0" encoding="iso-8859-1"?>
<!-- Uploaded to: SVG Repo, www.svgrepo.com, Generator: SVG Repo Mixer Tools -->
<svg height="800px" width="800px" version="1.1" id="Layer_1" xmlns="http://www.w3.org/2000/svg" xmlns:xlink="http://www.w3.org/1999/xlink" 
	 viewBox="0 0 480 480" xml:space="preserve">
<g transform="translate(0 -540.36)">
	<path style="fill:#FFE3A7;" d="M24,630.36h432c13.296,0,24,10.704,24,24v252c0,13.296-10.704,24-24,24H24
		c-13.296,0-24-10.704-24-24v-252C0,641.064,10.704,630.36,24,630.36z"/>
	<path style="fill:#3B3C3D;" d="M0,676.977h480v65.759H0V676.977z"/>
	<path style="fill:#D4A579;" d="M70.249,784.987h43.363c16.514,0,29.809,14.353,29.809,32.181s-13.295,32.181-29.809,32.181H70.249
		c-16.514,0-29.809-14.353-29.809-32.181S53.735,784.987,70.249,784.987z"/>
	<g>
		<path style="fill:#3B3C3D;" d="M340.677,767.934l-1.833,4.97h3.672L340.677,767.934L340.677,767.934z M339.915,766.602h1.532
			l3.806,9.987h-1.405l-0.91-2.562h-4.502l-0.91,2.562h-1.425L339.915,766.602z"/>
		<path style="fill:#3B3C3D;" d="M346.551,766.602h1.358v6.067c0,1.07,0.194,1.842,0.582,2.315c0.388,0.468,1.017,0.702,1.886,0.702
			c0.865,0,1.492-0.234,1.88-0.702c0.388-0.473,0.582-1.244,0.582-2.315v-6.067h1.358v6.234c0,1.302-0.323,2.286-0.97,2.95
			c-0.642,0.665-1.592,0.997-2.85,0.997c-1.262,0-2.216-0.332-2.863-0.997c-0.642-0.664-0.963-1.648-0.963-2.95L346.551,766.602
			L346.551,766.602z"/>
		<path style="fill:#3B3C3D;" d="M355.354,766.602h8.449v1.137h-3.545v8.85h-1.358v-8.85h-3.545V766.602z"/>
		<path style="fill:#3B3C3D;" d="M365.114,766.602h1.351v4.094h4.91v-4.094h1.351v9.987h-1.351v-4.756h-4.91v4.756h-1.351V766.602z"
			/>
		<path style="fill:#3B3C3D;" d="M379.469,767.519c-0.981,0-1.762,0.366-2.341,1.097c-0.575,0.731-0.863,1.728-0.863,2.99
			c0,1.258,0.288,2.252,0.863,2.983c0.58,0.731,1.36,1.097,2.341,1.097c0.981,0,1.757-0.366,2.328-1.097
			c0.575-0.731,0.863-1.726,0.863-2.983c0-1.262-0.288-2.259-0.863-2.99C381.226,767.885,380.45,767.519,379.469,767.519z
			 M379.469,766.422c1.4,0,2.52,0.47,3.358,1.411c0.838,0.936,1.258,2.194,1.258,3.773c0,1.574-0.419,2.832-1.258,3.773
			c-0.838,0.937-1.958,1.405-3.358,1.405c-1.405,0-2.529-0.468-3.371-1.405c-0.838-0.936-1.258-2.194-1.258-3.773
			s0.419-2.836,1.258-3.773C376.94,766.892,378.064,766.422,379.469,766.422z"/>
		<path style="fill:#3B3C3D;" d="M390.935,771.907c0.29,0.099,0.571,0.308,0.843,0.629c0.276,0.321,0.553,0.763,0.829,1.325
			l1.371,2.729h-1.452l-1.278-2.562c-0.33-0.669-0.651-1.113-0.963-1.331c-0.308-0.218-0.729-0.328-1.264-0.328h-1.472v4.221h-1.351
			v-9.987h3.05c1.142,0,1.993,0.239,2.555,0.716c0.562,0.477,0.843,1.197,0.843,2.161c0,0.629-0.147,1.151-0.441,1.565
			C391.916,771.459,391.492,771.747,390.935,771.907L390.935,771.907z M387.55,767.713v3.546h1.699c0.651,0,1.142-0.149,1.472-0.448
			c0.335-0.303,0.502-0.747,0.502-1.331c0-0.584-0.167-1.023-0.502-1.318c-0.33-0.299-0.821-0.448-1.472-0.448L387.55,767.713
			L387.55,767.713z"/>
		<path style="fill:#3B3C3D;" d="M395.724,766.602h1.351v9.987h-1.351V766.602z"/>
		<path style="fill:#3B3C3D;" d="M405.752,766.93v1.318c-0.513-0.245-0.997-0.428-1.452-0.549c-0.455-0.121-0.894-0.181-1.318-0.181
			c-0.736,0-1.304,0.143-1.706,0.428c-0.397,0.285-0.595,0.691-0.595,1.217c0,0.442,0.132,0.776,0.395,1.003
			c0.268,0.223,0.772,0.404,1.512,0.542l0.816,0.166c1.008,0.192,1.75,0.531,2.228,1.017c0.482,0.482,0.722,1.128,0.722,1.94
			c0,0.968-0.326,1.701-0.977,2.201c-0.647,0.5-1.597,0.749-2.85,0.749c-0.473,0-0.977-0.054-1.512-0.161
			c-0.531-0.107-1.081-0.266-1.652-0.475v-1.392c0.549,0.308,1.086,0.54,1.612,0.696c0.526,0.156,1.044,0.234,1.552,0.234
			c0.771,0,1.367-0.152,1.786-0.455c0.419-0.303,0.629-0.736,0.629-1.298c0-0.491-0.152-0.874-0.455-1.151
			c-0.299-0.276-0.792-0.484-1.478-0.622l-0.823-0.161c-1.008-0.201-1.737-0.515-2.187-0.943s-0.676-1.023-0.676-1.786
			c0-0.883,0.31-1.579,0.93-2.087c0.624-0.508,1.483-0.762,2.575-0.762c0.468,0,0.945,0.043,1.432,0.128
			S405.243,766.76,405.752,766.93L405.752,766.93z"/>
		<path style="fill:#3B3C3D;" d="M408.461,766.602h6.315v1.137h-4.964v2.957h4.756v1.137h-4.756v3.619h5.084v1.137h-6.435V766.602z"
			/>
		<path style="fill:#3B3C3D;" d="M418.481,767.713v7.767h1.632c1.378,0,2.386-0.312,3.024-0.937c0.642-0.624,0.963-1.61,0.963-2.957
			c0-1.338-0.321-2.317-0.963-2.937c-0.638-0.624-1.646-0.937-3.024-0.937H418.481z M417.13,766.602h2.776
			c1.935,0,3.356,0.404,4.261,1.211c0.905,0.803,1.358,2.06,1.358,3.773c0,1.721-0.455,2.986-1.365,3.793
			c-0.91,0.807-2.328,1.211-4.254,1.211h-2.776V766.602z"/>
		<path style="fill:#3B3C3D;" d="M349.24,782.685v1.318c-0.513-0.245-0.997-0.428-1.452-0.549c-0.455-0.121-0.894-0.181-1.318-0.181
			c-0.736,0-1.304,0.143-1.706,0.428c-0.397,0.285-0.595,0.691-0.595,1.217c0,0.442,0.132,0.776,0.395,1.003
			c0.268,0.223,0.771,0.404,1.512,0.542l0.816,0.166c1.008,0.192,1.75,0.531,2.228,1.017c0.482,0.482,0.722,1.128,0.722,1.94
			c0,0.968-0.326,1.701-0.977,2.201c-0.647,0.499-1.597,0.749-2.85,0.749c-0.473,0-0.977-0.054-1.512-0.161
			c-0.531-0.107-1.081-0.265-1.652-0.475v-1.392c0.549,0.308,1.086,0.54,1.612,0.696s1.044,0.234,1.552,0.234
			c0.772,0,1.367-0.152,1.786-0.455c0.419-0.303,0.629-0.736,0.629-1.298c0-0.49-0.152-0.874-0.455-1.151
			c-0.299-0.276-0.792-0.484-1.478-0.622l-0.823-0.161c-1.008-0.201-1.737-0.515-2.187-0.943c-0.45-0.428-0.676-1.024-0.676-1.786
			c0-0.883,0.31-1.579,0.93-2.087c0.624-0.508,1.483-0.762,2.575-0.762c0.468,0,0.945,0.043,1.432,0.128
			S348.731,782.515,349.24,782.685L349.24,782.685z"/>
		<path style="fill:#3B3C3D;" d="M351.949,782.357h1.351v9.987h-1.351V782.357z"/>
		<path style="fill:#3B3C3D;" d="M362.799,790.92v-2.682h-2.207v-1.11h3.545v4.288c-0.522,0.37-1.097,0.651-1.726,0.843
			c-0.629,0.187-1.3,0.281-2.014,0.281c-1.561,0-2.783-0.455-3.666-1.365c-0.879-0.914-1.318-2.185-1.318-3.813
			c0-1.632,0.439-2.903,1.318-3.813c0.883-0.914,2.105-1.371,3.666-1.371c0.651,0,1.269,0.08,1.853,0.241
			c0.589,0.16,1.131,0.397,1.626,0.709v1.438c-0.499-0.424-1.03-0.742-1.592-0.957c-0.562-0.214-1.153-0.321-1.773-0.321
			c-1.222,0-2.141,0.341-2.756,1.023c-0.611,0.682-0.916,1.699-0.916,3.05c0,1.347,0.305,2.361,0.916,3.044
			c0.615,0.682,1.534,1.023,2.756,1.023c0.477,0,0.903-0.04,1.278-0.121C362.164,791.222,362.5,791.093,362.799,790.92
			L362.799,790.92z"/>
		<path style="fill:#3B3C3D;" d="M366.612,782.357h1.82l4.428,8.355v-8.355h1.311v9.987h-1.82l-4.428-8.355v8.355h-1.311
			L366.612,782.357L366.612,782.357z"/>
		<path style="fill:#3B3C3D;" d="M380.198,783.688l-1.833,4.97h3.672L380.198,783.688z M379.436,782.357h1.532l3.806,9.987h-1.405
			l-0.91-2.562h-4.502l-0.91,2.562h-1.425L379.436,782.357z"/>
		<path style="fill:#3B3C3D;" d="M383.77,782.357h8.449v1.137h-3.545v8.85h-1.358v-8.85h-3.545V782.357z"/>
		<path style="fill:#3B3C3D;" d="M393.376,782.357h1.358v6.067c0,1.07,0.194,1.842,0.582,2.315c0.388,0.468,1.017,0.702,1.886,0.702
			c0.865,0,1.492-0.234,1.88-0.702c0.388-0.473,0.582-1.244,0.582-2.315v-6.067h1.358v6.234c0,1.302-0.323,2.286-0.97,2.95
			c-0.642,0.665-1.592,0.997-2.85,0.997c-1.262,0-2.216-0.332-2.863-0.997c-0.642-0.664-0.963-1.648-0.963-2.95V782.357z"/>
		<path style="fill:#3B3C3D;" d="M408.3,787.662c0.29,0.099,0.571,0.308,0.843,0.629c0.276,0.321,0.553,0.763,0.829,1.325
			l1.371,2.729h-1.452l-1.278-2.562c-0.33-0.669-0.651-1.113-0.963-1.331c-0.308-0.218-0.729-0.328-1.264-0.328h-1.472v4.221h-1.351
			v-9.987h3.05c1.142,0,1.993,0.239,2.555,0.716c0.562,0.477,0.843,1.197,0.843,2.161c0,0.629-0.147,1.151-0.441,1.565
			C409.281,787.214,408.858,787.502,408.3,787.662L408.3,787.662z M404.915,783.468v3.546h1.699c0.651,0,1.142-0.149,1.472-0.448
			c0.334-0.303,0.502-0.747,0.502-1.331c0-0.584-0.167-1.023-0.502-1.318c-0.33-0.299-0.821-0.448-1.472-0.448L404.915,783.468
			L404.915,783.468z"/>
		<path style="fill:#3B3C3D;" d="M413.09,782.357h6.315v1.137h-4.964v2.957h4.756v1.137h-4.756v3.619h5.084v1.137h-6.435
			L413.09,782.357L413.09,782.357z"/>
		<path style="fill:#3B3C3D;" d="M345.594,798.112h1.82l4.428,8.355v-8.355h1.311v9.987h-1.82l-4.428-8.355v8.355h-1.311V798.112z"
			/>
		<path style="fill:#3B3C3D;" d="M359.896,799.028c-0.981,0-1.762,0.366-2.341,1.097c-0.575,0.731-0.863,1.728-0.863,2.99
			c0,1.258,0.288,2.252,0.863,2.983c0.58,0.731,1.36,1.097,2.341,1.097c0.981,0,1.757-0.366,2.328-1.097
			c0.575-0.731,0.863-1.726,0.863-2.983c0-1.262-0.288-2.259-0.863-2.99C361.653,799.394,360.877,799.028,359.896,799.028z
			 M359.896,797.932c1.4,0,2.52,0.471,3.358,1.411c0.838,0.936,1.258,2.194,1.258,3.773c0,1.574-0.419,2.832-1.258,3.773
			c-0.838,0.937-1.958,1.405-3.358,1.405c-1.405,0-2.529-0.468-3.371-1.405c-0.838-0.936-1.258-2.194-1.258-3.773
			s0.419-2.836,1.258-3.773C357.367,798.402,358.491,797.932,359.896,797.932z"/>
		<path style="fill:#3B3C3D;" d="M365.241,798.112h8.449v1.137h-3.545v8.85h-1.358v-8.85h-3.545V798.112z"/>
		<path style="fill:#3B3C3D;" d="M381.937,808.099l-3.813-9.987h1.411l3.164,8.409l3.171-8.409h1.405l-3.806,9.987H381.937z"/>
		<path style="fill:#3B3C3D;" d="M391.182,799.443l-1.833,4.97h3.672L391.182,799.443z M390.419,798.112h1.532l3.806,9.987h-1.405
			l-0.91-2.562h-4.502l-0.91,2.562h-1.425L390.419,798.112z"/>
		<path style="fill:#3B3C3D;" d="M397.209,798.112h1.351v8.85h4.863v1.137h-6.214V798.112z"/>
		<path style="fill:#3B3C3D;" d="M404.835,798.112h1.351v9.987h-1.351V798.112z"/>
		<path style="fill:#3B3C3D;" d="M410.227,799.222v7.767h1.632c1.378,0,2.386-0.312,3.024-0.937c0.642-0.624,0.963-1.61,0.963-2.957
			c0-1.338-0.321-2.317-0.963-2.937c-0.638-0.624-1.646-0.937-3.024-0.937H410.227z M408.875,798.112h2.776
			c1.935,0,3.356,0.404,4.261,1.211c0.905,0.803,1.358,2.06,1.358,3.773c0,1.721-0.455,2.986-1.365,3.793
			c-0.91,0.807-2.328,1.211-4.254,1.211h-2.776L408.875,798.112L408.875,798.112z"/>
		<path style="fill:#3B3C3D;" d="M326.777,813.867h1.358v6.067c0,1.07,0.194,1.842,0.582,2.315c0.388,0.468,1.017,0.702,1.886,0.702
			c0.865,0,1.492-0.234,1.88-0.702c0.388-0.473,0.582-1.244,0.582-2.315v-6.067h1.358v6.235c0,1.302-0.323,2.286-0.97,2.95
			c-0.642,0.665-1.592,0.997-2.85,0.997c-1.262,0-2.216-0.332-2.863-0.997c-0.642-0.664-0.963-1.648-0.963-2.95V813.867z"/>
		<path style="fill:#3B3C3D;" d="M336.965,813.867h1.82l4.428,8.355v-8.355h1.311v9.987h-1.82l-4.428-8.355v8.355h-1.311V813.867z"
			/>
		<path style="fill:#3B3C3D;" d="M347.213,813.867h1.351v8.85h4.863v1.137h-6.214V813.867z"/>
		<path style="fill:#3B3C3D;" d="M354.839,813.867h6.315v1.137h-4.964v2.957h4.756v1.137h-4.756v3.619h5.084v1.137h-6.435V813.867z"
			/>
		<path style="fill:#3B3C3D;" d="M369.495,814.195v1.318c-0.513-0.245-0.997-0.428-1.452-0.549
			c-0.455-0.121-0.894-0.181-1.318-0.181c-0.736,0-1.304,0.143-1.706,0.428c-0.397,0.285-0.595,0.691-0.595,1.217
			c0,0.442,0.132,0.776,0.395,1.003c0.268,0.223,0.771,0.404,1.512,0.542l0.816,0.166c1.008,0.192,1.75,0.531,2.228,1.017
			c0.482,0.482,0.722,1.128,0.722,1.94c0,0.968-0.326,1.701-0.977,2.201c-0.647,0.5-1.597,0.749-2.85,0.749
			c-0.473,0-0.977-0.054-1.512-0.161c-0.531-0.107-1.081-0.266-1.652-0.475v-1.392c0.549,0.308,1.086,0.54,1.612,0.696
			c0.526,0.156,1.044,0.234,1.552,0.234c0.772,0,1.367-0.152,1.786-0.455c0.419-0.303,0.629-0.736,0.629-1.298
			c0-0.491-0.152-0.874-0.455-1.151c-0.299-0.276-0.792-0.484-1.478-0.622l-0.823-0.161c-1.008-0.201-1.737-0.515-2.187-0.943
			c-0.45-0.428-0.676-1.024-0.676-1.786c0-0.883,0.31-1.579,0.93-2.087c0.624-0.508,1.483-0.762,2.575-0.762
			c0.468,0,0.945,0.043,1.432,0.128S368.987,814.025,369.495,814.195L369.495,814.195z"/>
		<path style="fill:#3B3C3D;" d="M378.191,814.195v1.318c-0.513-0.245-0.997-0.428-1.452-0.549
			c-0.455-0.121-0.894-0.181-1.318-0.181c-0.736,0-1.304,0.143-1.706,0.428c-0.397,0.285-0.595,0.691-0.595,1.217
			c0,0.442,0.132,0.776,0.395,1.003c0.268,0.223,0.772,0.404,1.512,0.542l0.816,0.166c1.008,0.192,1.75,0.531,2.228,1.017
			c0.482,0.482,0.722,1.128,0.722,1.94c0,0.968-0.326,1.701-0.977,2.201c-0.647,0.5-1.597,0.749-2.85,0.749
			c-0.473,0-0.977-0.054-1.512-0.161c-0.531-0.107-1.081-0.266-1.652-0.475v-1.392c0.548,0.308,1.086,0.54,1.612,0.696
			c0.526,0.156,1.044,0.234,1.552,0.234c0.771,0,1.367-0.152,1.786-0.455c0.419-0.303,0.629-0.736,0.629-1.298
			c0-0.491-0.152-0.874-0.455-1.151c-0.299-0.276-0.792-0.484-1.478-0.622l-0.823-0.161c-1.008-0.201-1.737-0.515-2.187-0.943
			c-0.45-0.428-0.676-1.024-0.676-1.786c0-0.883,0.31-1.579,0.93-2.087c0.624-0.508,1.483-0.762,2.575-0.762
			c0.468,0,0.945,0.043,1.432,0.128S377.683,814.025,378.191,814.195L378.191,814.195z"/>
		<path style="fill:#3B3C3D;" d="M391.249,814.195v1.318c-0.513-0.245-0.997-0.428-1.452-0.549
			c-0.455-0.121-0.894-0.181-1.318-0.181c-0.736,0-1.304,0.143-1.706,0.428c-0.397,0.285-0.595,0.691-0.595,1.217
			c0,0.442,0.132,0.776,0.395,1.003c0.268,0.223,0.771,0.404,1.512,0.542l0.816,0.166c1.008,0.192,1.75,0.531,2.228,1.017
			c0.482,0.482,0.722,1.128,0.722,1.94c0,0.968-0.326,1.701-0.977,2.201c-0.647,0.5-1.597,0.749-2.85,0.749
			c-0.473,0-0.977-0.054-1.512-0.161c-0.531-0.107-1.081-0.266-1.652-0.475v-1.392c0.549,0.308,1.086,0.54,1.612,0.696
			c0.526,0.156,1.044,0.234,1.552,0.234c0.772,0,1.367-0.152,1.786-0.455c0.419-0.303,0.629-0.736,0.629-1.298
			c0-0.491-0.152-0.874-0.455-1.151c-0.299-0.276-0.792-0.484-1.478-0.622l-0.823-0.161c-1.008-0.201-1.737-0.515-2.187-0.943
			c-0.45-0.428-0.676-1.024-0.676-1.786c0-0.883,0.31-1.579,0.93-2.087c0.624-0.508,1.483-0.762,2.575-0.762
			c0.468,0,0.945,0.043,1.432,0.128C390.243,813.898,390.741,814.025,391.249,814.195L391.249,814.195z"/>
		<path style="fill:#3B3C3D;" d="M393.958,813.867h1.351v9.987h-1.351V813.867z"/>
		<path style="fill:#3B3C3D;" d="M404.808,822.429v-2.682h-2.207v-1.11h3.545v4.288c-0.522,0.37-1.097,0.651-1.726,0.843
			c-0.629,0.187-1.3,0.281-2.013,0.281c-1.561,0-2.783-0.455-3.666-1.365c-0.879-0.914-1.318-2.185-1.318-3.813
			c0-1.632,0.439-2.903,1.318-3.813c0.883-0.914,2.105-1.371,3.666-1.371c0.651,0,1.269,0.08,1.853,0.241
			c0.589,0.161,1.131,0.397,1.626,0.709v1.438c-0.499-0.424-1.03-0.743-1.592-0.957c-0.562-0.214-1.153-0.321-1.773-0.321
			c-1.222,0-2.141,0.341-2.756,1.023c-0.611,0.682-0.916,1.699-0.916,3.05c0,1.347,0.305,2.361,0.916,3.044
			c0.615,0.682,1.534,1.024,2.756,1.023c0.477,0,0.903-0.04,1.278-0.121C404.173,822.732,404.51,822.603,404.808,822.429
			L404.808,822.429z"/>
		<path style="fill:#3B3C3D;" d="M408.621,813.867h1.819l4.428,8.355v-8.355h1.311v9.987h-1.82l-4.428-8.355v8.355h-1.311
			L408.621,813.867L408.621,813.867z"/>
		<path style="fill:#3B3C3D;" d="M418.869,813.867h6.315v1.137h-4.964v2.957h4.756v1.137h-4.756v3.619h5.084v1.137h-6.435V813.867z"
			/>
		<path style="fill:#3B3C3D;" d="M428.89,814.977v7.767h1.632c1.378,0,2.386-0.312,3.024-0.937c0.642-0.624,0.963-1.61,0.963-2.957
			c0-1.338-0.321-2.317-0.963-2.937c-0.638-0.624-1.646-0.937-3.024-0.937H428.89z M427.539,813.867h2.776
			c1.935,0,3.356,0.404,4.261,1.211c0.905,0.803,1.358,2.06,1.358,3.773c0,1.721-0.455,2.986-1.365,3.793
			c-0.91,0.807-2.328,1.211-4.254,1.211h-2.776L427.539,813.867L427.539,813.867z"/>
		<path style="fill:#3B3C3D;" d="M21.737,646.957h1.82l4.428,8.355v-8.355h1.311v9.987h-1.82l-4.428-8.355v8.355h-1.311
			C21.737,656.945,21.737,646.957,21.737,646.957z"/>
		<path style="fill:#3B3C3D;" d="M34.835,650.315c-0.66,0-1.182,0.259-1.565,0.776c-0.384,0.513-0.575,1.218-0.575,2.114
			c0,0.896,0.19,1.603,0.569,2.121c0.384,0.513,0.908,0.769,1.572,0.769c0.656,0,1.175-0.259,1.559-0.776
			c0.384-0.517,0.575-1.222,0.575-2.114c0-0.887-0.192-1.59-0.575-2.107C36.01,650.576,35.491,650.315,34.835,650.315z
			 M34.835,649.272c1.07,0,1.911,0.348,2.522,1.044c0.611,0.696,0.916,1.659,0.916,2.89c0,1.226-0.305,2.19-0.916,2.89
			c-0.611,0.696-1.452,1.044-2.522,1.044c-1.075,0-1.918-0.348-2.529-1.044c-0.606-0.7-0.91-1.664-0.91-2.89
			c0-1.231,0.303-2.194,0.91-2.89C32.917,649.62,33.76,649.272,34.835,649.272z"/>
		<path style="fill:#3B3C3D;" d="M41.524,647.325v2.127h2.535v0.957h-2.535v4.067c0,0.611,0.083,1.004,0.248,1.177
			c0.169,0.174,0.511,0.261,1.023,0.261h1.264v1.03h-1.264c-0.95,0-1.605-0.176-1.967-0.528c-0.361-0.357-0.542-1.003-0.542-1.94
			v-4.067h-0.903v-0.957h0.903v-2.127C40.287,647.325,41.524,647.325,41.524,647.325z"/>
		<path style="fill:#3B3C3D;" d="M49.164,649.452h1.304l2.341,6.288l2.341-6.288h1.304l-2.81,7.492h-1.672L49.164,649.452z"/>
		<path style="fill:#3B3C3D;" d="M61.559,653.178c-0.994,0-1.683,0.114-2.067,0.341c-0.384,0.227-0.575,0.615-0.575,1.164
			c0,0.437,0.143,0.785,0.428,1.044c0.29,0.254,0.682,0.381,1.177,0.381c0.682,0,1.229-0.241,1.639-0.722
			c0.415-0.486,0.622-1.131,0.622-1.933v-0.274C62.783,653.178,61.559,653.178,61.559,653.178z M64.014,652.67v4.275h-1.231v-1.137
			c-0.281,0.455-0.631,0.792-1.05,1.01c-0.419,0.214-0.932,0.321-1.539,0.321c-0.767,0-1.378-0.214-1.833-0.642
			c-0.45-0.433-0.676-1.01-0.676-1.733c0-0.843,0.281-1.478,0.843-1.906c0.566-0.428,1.409-0.642,2.529-0.642h1.726v-0.121
			c0-0.566-0.187-1.003-0.562-1.311c-0.37-0.312-0.892-0.468-1.565-0.468c-0.428,0-0.845,0.051-1.251,0.153
			c-0.406,0.102-0.796,0.256-1.171,0.462v-1.137c0.45-0.174,0.887-0.303,1.311-0.388c0.424-0.089,0.836-0.133,1.238-0.133
			c1.084,0,1.893,0.281,2.428,0.843C63.747,650.677,64.014,651.529,64.014,652.67L64.014,652.67z"/>
		<path style="fill:#3B3C3D;" d="M66.556,646.536h1.231v10.409h-1.231V646.536z"/>
		<path style="fill:#3B3C3D;" d="M70.356,649.452h1.231v7.492h-1.231V649.452z M70.356,646.536h1.231v1.559h-1.231V646.536z"/>
		<path style="fill:#3B3C3D;" d="M79.085,650.59v-4.054h1.231v10.409h-1.231v-1.124c-0.259,0.446-0.586,0.778-0.983,0.997
			c-0.392,0.214-0.865,0.321-1.418,0.321c-0.905,0-1.643-0.361-2.214-1.084c-0.566-0.722-0.85-1.672-0.85-2.85
			c0-1.177,0.283-2.127,0.85-2.85c0.571-0.722,1.309-1.084,2.214-1.084c0.553,0,1.026,0.109,1.418,0.328
			C78.499,649.814,78.827,650.144,79.085,650.59L79.085,650.59z M74.891,653.205c0,0.905,0.185,1.617,0.555,2.134
			c0.375,0.513,0.887,0.769,1.539,0.769s1.164-0.256,1.539-0.769c0.375-0.517,0.562-1.229,0.562-2.134
			c0-0.905-0.187-1.614-0.562-2.127c-0.375-0.517-0.887-0.776-1.539-0.776c-0.651,0-1.164,0.259-1.539,0.776
			C75.076,651.591,74.891,652.3,74.891,653.205z"/>
		<path style="fill:#3B3C3D;" d="M91.006,646.536v1.023h-1.177c-0.441,0-0.749,0.089-0.923,0.268
			c-0.169,0.178-0.254,0.5-0.254,0.963v0.662h2.027v0.957h-2.027v6.536h-1.238v-6.536h-1.177v-0.957h1.177v-0.522
			c0-0.834,0.194-1.441,0.582-1.82c0.388-0.384,1.003-0.575,1.846-0.575L91.006,646.536L91.006,646.536z"/>
		<path style="fill:#3B3C3D;" d="M94.932,650.315c-0.66,0-1.182,0.259-1.565,0.776c-0.384,0.513-0.575,1.218-0.575,2.114
			c0,0.896,0.19,1.603,0.569,2.121c0.384,0.513,0.908,0.769,1.572,0.769c0.656,0,1.175-0.259,1.559-0.776
			c0.384-0.517,0.575-1.222,0.575-2.114c0-0.887-0.192-1.59-0.575-2.107C96.108,650.576,95.588,650.315,94.932,650.315z
			 M94.932,649.272c1.07,0,1.911,0.348,2.522,1.044c0.611,0.696,0.916,1.659,0.916,2.89c0,1.226-0.305,2.19-0.916,2.89
			c-0.611,0.696-1.452,1.044-2.522,1.044c-1.075,0-1.918-0.348-2.529-1.044c-0.607-0.7-0.91-1.664-0.91-2.89
			c0-1.231,0.303-2.194,0.91-2.89C93.015,649.62,93.858,649.272,94.932,649.272z"/>
		<path style="fill:#3B3C3D;" d="M104.746,650.603c-0.138-0.08-0.29-0.138-0.455-0.174c-0.161-0.04-0.339-0.06-0.535-0.06
			c-0.696,0-1.231,0.227-1.605,0.682c-0.37,0.45-0.555,1.099-0.555,1.947v3.947h-1.238v-7.492h1.238v1.164
			c0.259-0.455,0.595-0.792,1.01-1.01c0.415-0.223,0.919-0.334,1.512-0.334c0.085,0,0.178,0.007,0.281,0.02
			c0.103,0.012,0.216,0.028,0.341,0.047l0.007,1.264L104.746,650.603z"/>
		<path style="fill:#3B3C3D;" d="M111.602,655.821v3.974h-1.238v-10.342h1.238v1.137c0.259-0.446,0.584-0.776,0.977-0.99
			c0.397-0.219,0.87-0.328,1.418-0.328c0.91,0,1.648,0.361,2.214,1.084c0.571,0.722,0.856,1.672,0.856,2.85s-0.285,2.127-0.856,2.85
			c-0.566,0.722-1.304,1.084-2.214,1.084c-0.549,0-1.021-0.107-1.418-0.321C112.187,656.599,111.861,656.266,111.602,655.821
			L111.602,655.821z M115.79,653.205c0-0.905-0.187-1.614-0.562-2.127c-0.37-0.517-0.881-0.776-1.532-0.776
			s-1.164,0.259-1.539,0.776c-0.37,0.513-0.555,1.222-0.555,2.127c0,0.905,0.185,1.617,0.555,2.134
			c0.375,0.513,0.887,0.769,1.539,0.769c0.651,0,1.162-0.256,1.532-0.769C115.603,654.822,115.79,654.11,115.79,653.205z"/>
		<path style="fill:#3B3C3D;" d="M122.513,653.178c-0.994,0-1.683,0.114-2.067,0.341c-0.384,0.227-0.575,0.615-0.575,1.164
			c0,0.437,0.143,0.785,0.428,1.044c0.29,0.254,0.682,0.381,1.177,0.381c0.682,0,1.229-0.241,1.639-0.722
			c0.415-0.486,0.622-1.131,0.622-1.933v-0.274H122.513L122.513,653.178z M124.968,652.67v4.275h-1.231v-1.137
			c-0.281,0.455-0.631,0.792-1.05,1.01c-0.419,0.214-0.932,0.321-1.539,0.321c-0.767,0-1.378-0.214-1.833-0.642
			c-0.45-0.433-0.676-1.01-0.676-1.733c0-0.843,0.281-1.478,0.843-1.906c0.566-0.428,1.409-0.642,2.529-0.642h1.726v-0.121
			c0-0.566-0.187-1.003-0.562-1.311c-0.37-0.312-0.892-0.468-1.565-0.468c-0.428,0-0.845,0.051-1.251,0.153
			s-0.796,0.256-1.171,0.462v-1.137c0.45-0.174,0.887-0.303,1.311-0.388c0.424-0.089,0.836-0.133,1.238-0.133
			c1.084,0,1.893,0.281,2.428,0.843C124.7,650.677,124.968,651.529,124.968,652.67L124.968,652.67z"/>
		<path style="fill:#3B3C3D;" d="M130.627,657.64c-0.348,0.892-0.687,1.474-1.017,1.746s-0.771,0.408-1.324,0.408h-0.983v-1.03
			h0.722c0.339,0,0.602-0.08,0.789-0.241c0.187-0.16,0.395-0.539,0.622-1.137l0.221-0.562l-3.03-7.372h1.304l2.341,5.86l2.341-5.86
			h1.304L130.627,657.64L130.627,657.64z"/>
		<path style="fill:#3B3C3D;" d="M141.45,650.891c0.308-0.553,0.676-0.961,1.104-1.224c0.428-0.263,0.932-0.395,1.512-0.395
			c0.78,0,1.382,0.274,1.806,0.823c0.424,0.544,0.635,1.32,0.635,2.328v4.522h-1.238v-4.482c0-0.718-0.127-1.251-0.381-1.599
			c-0.254-0.348-0.642-0.522-1.164-0.522c-0.638,0-1.142,0.212-1.512,0.635c-0.37,0.424-0.555,1.001-0.555,1.732v4.234h-1.238
			v-4.482c0-0.722-0.127-1.255-0.381-1.599c-0.254-0.348-0.647-0.522-1.177-0.522c-0.629,0-1.128,0.214-1.498,0.642
			c-0.37,0.424-0.555,0.999-0.555,1.726v4.234h-1.238v-7.492h1.238v1.164c0.281-0.459,0.618-0.798,1.01-1.017
			c0.392-0.219,0.858-0.328,1.398-0.328c0.544,0,1.006,0.138,1.385,0.415C140.984,649.963,141.268,650.364,141.45,650.891
			L141.45,650.891z"/>
		<path style="fill:#3B3C3D;" d="M155.378,652.891v0.602h-5.659c0.053,0.847,0.308,1.494,0.763,1.94
			c0.459,0.442,1.097,0.662,1.913,0.662c0.473,0,0.93-0.058,1.371-0.174c0.446-0.116,0.887-0.29,1.324-0.522v1.164
			c-0.441,0.187-0.894,0.33-1.358,0.428c-0.464,0.099-0.934,0.148-1.411,0.148c-1.195,0-2.143-0.348-2.843-1.044
			c-0.696-0.696-1.044-1.637-1.044-2.823c0-1.226,0.33-2.199,0.99-2.917c0.664-0.722,1.559-1.084,2.682-1.084
			c1.008,0,1.804,0.326,2.388,0.977c0.589,0.647,0.883,1.527,0.883,2.642V652.891z M154.147,652.529
			c-0.009-0.673-0.198-1.211-0.569-1.612c-0.366-0.401-0.852-0.602-1.458-0.602c-0.687,0-1.238,0.194-1.652,0.582
			c-0.41,0.388-0.647,0.934-0.709,1.639h4.388V652.529z"/>
		<path style="fill:#3B3C3D;" d="M163.626,652.422v4.522h-1.231v-4.482c0-0.709-0.138-1.24-0.415-1.592s-0.691-0.528-1.244-0.528
			c-0.664,0-1.188,0.212-1.572,0.635c-0.384,0.424-0.575,1.001-0.575,1.732v4.234h-1.238v-7.492h1.238v1.164
			c0.294-0.45,0.64-0.787,1.037-1.01c0.401-0.223,0.863-0.334,1.385-0.334c0.861,0,1.512,0.268,1.953,0.803
			C163.405,650.605,163.626,651.388,163.626,652.422L163.626,652.422z"/>
		<path style="fill:#3B3C3D;" d="M167.311,647.325v2.127h2.535v0.957h-2.535v4.067c0,0.611,0.083,1.004,0.248,1.177
			c0.169,0.174,0.511,0.261,1.023,0.261h1.264v1.03h-1.264c-0.95,0-1.605-0.176-1.967-0.528c-0.361-0.357-0.542-1.003-0.542-1.94
			v-4.067h-0.903v-0.957h0.903v-2.127H167.311z"/>
		<path style="fill:#3B3C3D;" d="M175.834,649.452h1.231v7.492h-1.231V649.452z M175.834,646.536h1.231v1.559h-1.231V646.536z"/>
		<path style="fill:#3B3C3D;" d="M185.861,652.422v4.522h-1.231v-4.482c0-0.709-0.138-1.24-0.415-1.592s-0.691-0.528-1.244-0.528
			c-0.664,0-1.188,0.212-1.572,0.635c-0.384,0.424-0.575,1.001-0.575,1.732v4.234h-1.238v-7.492h1.238v1.164
			c0.294-0.45,0.64-0.787,1.037-1.01c0.401-0.223,0.863-0.334,1.385-0.334c0.861,0,1.512,0.268,1.953,0.803
			C185.64,650.605,185.861,651.388,185.861,652.422L185.861,652.422z"/>
		<path style="fill:#3B3C3D;" d="M192.744,646.957h5.739v1.137h-4.388v2.943h3.96v1.137h-3.96v4.77h-1.351L192.744,646.957
			L192.744,646.957z"/>
		<path style="fill:#3B3C3D;" d="M203.006,650.315c-0.66,0-1.182,0.259-1.565,0.776c-0.384,0.513-0.575,1.218-0.575,2.114
			c0,0.896,0.19,1.603,0.569,2.121c0.384,0.513,0.908,0.769,1.572,0.769c0.656,0,1.175-0.259,1.559-0.776
			c0.384-0.517,0.575-1.222,0.575-2.114c0-0.887-0.192-1.59-0.575-2.107C204.181,650.576,203.662,650.315,203.006,650.315z
			 M203.006,649.272c1.07,0,1.911,0.348,2.522,1.044c0.611,0.696,0.916,1.659,0.916,2.89c0,1.226-0.305,2.19-0.916,2.89
			c-0.611,0.696-1.452,1.044-2.522,1.044c-1.075,0-1.918-0.348-2.529-1.044c-0.606-0.7-0.91-1.664-0.91-2.89
			c0-1.231,0.303-2.194,0.91-2.89C201.088,649.62,201.931,649.272,203.006,649.272z"/>
		<path style="fill:#3B3C3D;" d="M212.819,650.603c-0.138-0.08-0.29-0.138-0.455-0.174c-0.161-0.04-0.339-0.06-0.535-0.06
			c-0.696,0-1.231,0.227-1.605,0.682c-0.37,0.45-0.555,1.099-0.555,1.947v3.947h-1.238v-7.492h1.238v1.164
			c0.259-0.455,0.595-0.792,1.01-1.01c0.415-0.223,0.919-0.334,1.512-0.334c0.085,0,0.178,0.007,0.281,0.02
			c0.103,0.012,0.216,0.028,0.341,0.047l0.007,1.264L212.819,650.603z"/>
		<path style="fill:#3B3C3D;" d="M220.238,652.891v0.602h-5.659c0.054,0.847,0.308,1.494,0.763,1.94
			c0.459,0.442,1.097,0.662,1.913,0.662c0.473,0,0.93-0.058,1.371-0.174c0.446-0.116,0.887-0.29,1.324-0.522v1.164
			c-0.441,0.187-0.894,0.33-1.358,0.428c-0.464,0.099-0.934,0.148-1.411,0.148c-1.195,0-2.143-0.348-2.843-1.044
			c-0.696-0.696-1.044-1.637-1.044-2.823c0-1.226,0.33-2.199,0.99-2.917c0.664-0.722,1.559-1.084,2.682-1.084
			c1.008,0,1.804,0.326,2.388,0.977c0.589,0.647,0.883,1.527,0.883,2.642V652.891z M219.007,652.529
			c-0.009-0.673-0.198-1.211-0.569-1.612c-0.366-0.401-0.852-0.602-1.458-0.602c-0.687,0-1.238,0.194-1.652,0.582
			c-0.41,0.388-0.647,0.934-0.709,1.639h4.388L219.007,652.529z"/>
		<path style="fill:#3B3C3D;" d="M222.258,649.452h1.231v7.492h-1.231V649.452z M222.258,646.536h1.231v1.559h-1.231V646.536z"/>
		<path style="fill:#3B3C3D;" d="M230.988,653.111c0-0.892-0.185-1.583-0.555-2.074c-0.366-0.491-0.881-0.736-1.545-0.736
			c-0.66,0-1.175,0.245-1.545,0.736c-0.366,0.491-0.549,1.182-0.549,2.074c0,0.887,0.183,1.576,0.549,2.067
			c0.37,0.491,0.885,0.736,1.545,0.736c0.664,0,1.18-0.245,1.545-0.736C230.803,654.688,230.988,653.999,230.988,653.111z
			 M232.218,656.015c0,1.275-0.283,2.223-0.85,2.843c-0.566,0.624-1.434,0.937-2.602,0.937c-0.433,0-0.841-0.034-1.224-0.1
			c-0.384-0.062-0.756-0.16-1.117-0.294v-1.198c0.361,0.196,0.718,0.341,1.07,0.435c0.352,0.094,0.711,0.141,1.077,0.141
			c0.807,0,1.411-0.212,1.813-0.635c0.401-0.419,0.602-1.055,0.602-1.906v-0.609c-0.254,0.442-0.58,0.772-0.977,0.99
			c-0.397,0.219-0.872,0.328-1.425,0.328c-0.919,0-1.659-0.35-2.221-1.05c-0.562-0.7-0.843-1.628-0.843-2.783
			c0-1.16,0.281-2.089,0.843-2.789c0.562-0.7,1.302-1.05,2.221-1.05c0.553,0,1.028,0.109,1.425,0.328
			c0.397,0.219,0.722,0.548,0.977,0.99v-1.137h1.231L232.218,656.015L232.218,656.015z"/>
		<path style="fill:#3B3C3D;" d="M240.982,652.422v4.522h-1.231v-4.482c0-0.709-0.138-1.24-0.415-1.592s-0.691-0.528-1.244-0.528
			c-0.664,0-1.188,0.212-1.572,0.635c-0.384,0.424-0.575,1.001-0.575,1.732v4.234h-1.238v-7.492h1.238v1.164
			c0.294-0.45,0.64-0.787,1.037-1.01c0.401-0.223,0.863-0.334,1.385-0.334c0.861,0,1.512,0.268,1.953,0.803
			C240.761,650.605,240.982,651.388,240.982,652.422L240.982,652.422z"/>
		<path style="fill:#3B3C3D;" d="M247.865,646.957h6.315v1.137h-4.964v2.957h4.756v1.137h-4.756v3.619h5.084v1.137h-6.435V646.957z"
			/>
		<path style="fill:#3B3C3D;" d="M262.709,649.452l-2.709,3.646l2.85,3.846h-1.452l-2.181-2.943l-2.181,2.943h-1.452l2.91-3.92
			l-2.662-3.572h1.452l1.987,2.669l1.987-2.669H262.709L262.709,649.452z"/>
		<path style="fill:#3B3C3D;" d="M269.739,649.74v1.151c-0.348-0.192-0.698-0.335-1.05-0.428c-0.348-0.099-0.7-0.148-1.057-0.148
			c-0.798,0-1.418,0.254-1.86,0.763c-0.441,0.504-0.662,1.213-0.662,2.127c0,0.914,0.221,1.626,0.662,2.134
			c0.441,0.504,1.061,0.756,1.86,0.756c0.357,0,0.709-0.047,1.057-0.141c0.352-0.099,0.702-0.244,1.05-0.435v1.137
			c-0.343,0.161-0.7,0.281-1.07,0.361c-0.366,0.08-0.756,0.121-1.171,0.121c-1.128,0-2.025-0.355-2.689-1.064
			s-0.997-1.666-0.997-2.87c0-1.222,0.334-2.183,1.003-2.883c0.673-0.7,1.594-1.05,2.763-1.05c0.379,0,0.749,0.04,1.11,0.121
			C269.05,649.467,269.4,649.583,269.739,649.74L269.739,649.74z"/>
		<path style="fill:#3B3C3D;" d="M278.121,652.422v4.522h-1.231v-4.482c0-0.709-0.138-1.24-0.415-1.592s-0.691-0.528-1.244-0.528
			c-0.664,0-1.188,0.212-1.572,0.635c-0.384,0.424-0.575,1.001-0.575,1.732v4.234h-1.238v-10.409h1.238v4.081
			c0.294-0.45,0.64-0.787,1.037-1.01c0.401-0.223,0.863-0.334,1.385-0.334c0.861,0,1.512,0.268,1.953,0.803
			C277.9,650.605,278.121,651.388,278.121,652.422L278.121,652.422z"/>
		<path style="fill:#3B3C3D;" d="M283.994,653.178c-0.994,0-1.683,0.114-2.067,0.341c-0.384,0.227-0.575,0.615-0.575,1.164
			c0,0.437,0.143,0.785,0.428,1.044c0.29,0.254,0.682,0.381,1.177,0.381c0.682,0,1.229-0.241,1.639-0.722
			c0.415-0.486,0.622-1.131,0.622-1.933v-0.274H283.994z M286.449,652.67v4.275h-1.231v-1.137c-0.281,0.455-0.631,0.792-1.05,1.01
			c-0.419,0.214-0.932,0.321-1.539,0.321c-0.767,0-1.378-0.214-1.833-0.642c-0.45-0.433-0.676-1.01-0.676-1.733
			c0-0.843,0.281-1.478,0.843-1.906c0.566-0.428,1.409-0.642,2.529-0.642h1.726v-0.121c0-0.566-0.187-1.003-0.562-1.311
			c-0.37-0.312-0.892-0.468-1.565-0.468c-0.428,0-0.845,0.051-1.251,0.153s-0.796,0.256-1.171,0.462v-1.137
			c0.45-0.174,0.887-0.303,1.311-0.388c0.424-0.089,0.836-0.133,1.238-0.133c1.084,0,1.893,0.281,2.428,0.843
			C286.182,650.677,286.449,651.529,286.449,652.67L286.449,652.67z"/>
		<path style="fill:#3B3C3D;" d="M295.219,652.422v4.522h-1.231v-4.482c0-0.709-0.138-1.24-0.415-1.592s-0.691-0.528-1.244-0.528
			c-0.664,0-1.188,0.212-1.572,0.635c-0.384,0.424-0.575,1.001-0.575,1.732v4.234h-1.238v-7.492h1.238v1.164
			c0.294-0.45,0.64-0.787,1.037-1.01c0.401-0.223,0.863-0.334,1.385-0.334c0.861,0,1.512,0.268,1.953,0.803
			C294.998,650.605,295.219,651.388,295.219,652.422L295.219,652.422z"/>
		<path style="fill:#3B3C3D;" d="M302.617,653.111c0-0.892-0.185-1.583-0.555-2.074c-0.366-0.491-0.881-0.736-1.545-0.736
			c-0.66,0-1.175,0.245-1.545,0.736c-0.366,0.491-0.549,1.182-0.549,2.074c0,0.887,0.183,1.576,0.549,2.067
			c0.37,0.491,0.885,0.736,1.545,0.736c0.664,0,1.18-0.245,1.545-0.736C302.432,654.688,302.617,653.999,302.617,653.111z
			 M303.848,656.015c0,1.275-0.283,2.223-0.85,2.843c-0.566,0.624-1.434,0.937-2.602,0.937c-0.433,0-0.841-0.034-1.224-0.1
			c-0.384-0.062-0.756-0.16-1.117-0.294v-1.198c0.361,0.196,0.718,0.341,1.07,0.435c0.352,0.094,0.711,0.141,1.077,0.141
			c0.807,0,1.411-0.212,1.813-0.635c0.401-0.419,0.602-1.055,0.602-1.906v-0.609c-0.254,0.442-0.58,0.772-0.977,0.99
			c-0.397,0.219-0.872,0.328-1.425,0.328c-0.919,0-1.659-0.35-2.221-1.05c-0.562-0.7-0.843-1.628-0.843-2.783
			c0-1.16,0.281-2.089,0.843-2.789c0.562-0.7,1.302-1.05,2.221-1.05c0.553,0,1.028,0.109,1.425,0.328
			c0.397,0.219,0.722,0.548,0.977,0.99v-1.137h1.231V656.015z"/>
		<path style="fill:#3B3C3D;" d="M312.792,652.891v0.602h-5.659c0.053,0.847,0.308,1.494,0.763,1.94
			c0.459,0.442,1.097,0.662,1.913,0.662c0.473,0,0.93-0.058,1.371-0.174c0.446-0.116,0.887-0.29,1.324-0.522v1.164
			c-0.441,0.187-0.894,0.33-1.358,0.428c-0.464,0.099-0.934,0.148-1.411,0.148c-1.195,0-2.143-0.348-2.843-1.044
			c-0.696-0.696-1.044-1.637-1.044-2.823c0-1.226,0.33-2.199,0.99-2.917c0.664-0.722,1.559-1.084,2.682-1.084
			c1.008,0,1.804,0.326,2.388,0.977c0.589,0.647,0.883,1.527,0.883,2.642L312.792,652.891z M311.561,652.529
			c-0.009-0.673-0.198-1.211-0.569-1.612c-0.366-0.401-0.852-0.602-1.458-0.602c-0.687,0-1.238,0.194-1.652,0.582
			c-0.41,0.388-0.647,0.934-0.709,1.639h4.388V652.529z"/>
		<path style="fill:#3B3C3D;" d="M319.174,649.452h1.231v7.492h-1.231V649.452z M319.174,646.536h1.231v1.559h-1.231V646.536z"/>
		<path style="fill:#3B3C3D;" d="M329.201,652.422v4.522h-1.231v-4.482c0-0.709-0.138-1.24-0.415-1.592s-0.691-0.528-1.244-0.528
			c-0.664,0-1.189,0.212-1.572,0.635c-0.384,0.424-0.575,1.001-0.575,1.732v4.234h-1.238v-7.492h1.238v1.164
			c0.294-0.45,0.64-0.787,1.037-1.01c0.401-0.223,0.863-0.334,1.385-0.334c0.861,0,1.512,0.268,1.953,0.803
			C328.98,650.605,329.201,651.388,329.201,652.422L329.201,652.422z"/>
		<path style="fill:#3B3C3D;" d="M336.084,646.957h1.82l4.428,8.355v-8.355h1.311v9.987h-1.819l-4.428-8.355v8.355h-1.311
			L336.084,646.957L336.084,646.957z"/>
		<path style="fill:#3B3C3D;" d="M352.687,652.891v0.602h-5.659c0.053,0.847,0.308,1.494,0.763,1.94
			c0.459,0.442,1.097,0.662,1.913,0.662c0.473,0,0.93-0.058,1.371-0.174c0.446-0.116,0.887-0.29,1.324-0.522v1.164
			c-0.441,0.187-0.894,0.33-1.358,0.428c-0.464,0.099-0.934,0.148-1.411,0.148c-1.195,0-2.143-0.348-2.843-1.044
			c-0.696-0.696-1.044-1.637-1.044-2.823c0-1.226,0.33-2.199,0.99-2.917c0.664-0.722,1.559-1.084,2.682-1.084
			c1.008,0,1.804,0.326,2.388,0.977c0.589,0.647,0.883,1.527,0.883,2.642L352.687,652.891z M351.457,652.529
			c-0.009-0.673-0.198-1.211-0.569-1.612c-0.366-0.401-0.852-0.602-1.458-0.602c-0.687,0-1.238,0.194-1.652,0.582
			c-0.41,0.388-0.647,0.934-0.709,1.639h4.388V652.529z"/>
		<path style="fill:#3B3C3D;" d="M355.898,655.821v3.974h-1.238v-10.342h1.238v1.137c0.259-0.446,0.584-0.776,0.977-0.99
			c0.397-0.219,0.87-0.328,1.418-0.328c0.91,0,1.648,0.361,2.214,1.084c0.571,0.722,0.856,1.672,0.856,2.85s-0.285,2.127-0.856,2.85
			c-0.566,0.722-1.304,1.084-2.214,1.084c-0.549,0-1.021-0.107-1.418-0.321C356.483,656.599,356.157,656.266,355.898,655.821
			L355.898,655.821z M360.086,653.205c0-0.905-0.187-1.614-0.562-2.127c-0.37-0.517-0.881-0.776-1.532-0.776
			c-0.651,0-1.164,0.259-1.539,0.776c-0.37,0.513-0.555,1.222-0.555,2.127c0,0.905,0.185,1.617,0.555,2.134
			c0.375,0.513,0.887,0.769,1.539,0.769c0.651,0,1.162-0.256,1.532-0.769C359.899,654.822,360.086,654.11,360.086,653.205z"/>
		<path style="fill:#3B3C3D;" d="M366.809,653.178c-0.994,0-1.683,0.114-2.067,0.341c-0.384,0.227-0.575,0.615-0.575,1.164
			c0,0.437,0.143,0.785,0.428,1.044c0.29,0.254,0.682,0.381,1.177,0.381c0.682,0,1.229-0.241,1.639-0.722
			c0.415-0.486,0.622-1.131,0.622-1.933v-0.274H366.809z M369.264,652.67v4.275h-1.231v-1.137c-0.281,0.455-0.631,0.792-1.05,1.01
			c-0.419,0.214-0.932,0.321-1.539,0.321c-0.767,0-1.378-0.214-1.833-0.642c-0.45-0.433-0.676-1.01-0.676-1.733
			c0-0.843,0.281-1.478,0.843-1.906c0.566-0.428,1.409-0.642,2.529-0.642h1.726v-0.121c0-0.566-0.187-1.003-0.562-1.311
			c-0.37-0.312-0.892-0.468-1.565-0.468c-0.428,0-0.845,0.051-1.251,0.153s-0.796,0.256-1.171,0.462v-1.137
			c0.45-0.174,0.887-0.303,1.311-0.388c0.424-0.089,0.836-0.133,1.238-0.133c1.084,0,1.893,0.281,2.428,0.843
			C368.996,650.677,369.264,651.529,369.264,652.67L369.264,652.67z"/>
		<path style="fill:#3B3C3D;" d="M371.806,646.536h1.231v10.409h-1.231V646.536z"/>
		<path style="fill:#3B3C3D;" d="M383.372,653.178c-0.994,0-1.684,0.114-2.067,0.341c-0.384,0.227-0.575,0.615-0.575,1.164
			c0,0.437,0.143,0.785,0.428,1.044c0.29,0.254,0.682,0.381,1.177,0.381c0.682,0,1.229-0.241,1.639-0.722
			c0.415-0.486,0.622-1.131,0.622-1.933v-0.274H383.372z M385.827,652.67v4.275h-1.231v-1.137c-0.281,0.455-0.631,0.792-1.05,1.01
			c-0.419,0.214-0.932,0.321-1.539,0.321c-0.767,0-1.378-0.214-1.833-0.642c-0.45-0.433-0.676-1.01-0.676-1.733
			c0-0.843,0.281-1.478,0.843-1.906c0.566-0.428,1.409-0.642,2.529-0.642h1.726v-0.121c0-0.566-0.187-1.003-0.562-1.311
			c-0.37-0.312-0.892-0.468-1.565-0.468c-0.428,0-0.845,0.051-1.251,0.153s-0.796,0.256-1.171,0.462v-1.137
			c0.45-0.174,0.887-0.303,1.311-0.388c0.424-0.089,0.836-0.133,1.238-0.133c1.084,0,1.893,0.281,2.428,0.843
			C385.559,650.677,385.827,651.529,385.827,652.67L385.827,652.67z"/>
		<path style="fill:#3B3C3D;" d="M394.596,652.422v4.522h-1.231v-4.482c0-0.709-0.138-1.24-0.415-1.592s-0.691-0.528-1.244-0.528
			c-0.664,0-1.188,0.212-1.572,0.635c-0.384,0.424-0.575,1.001-0.575,1.732v4.234h-1.238v-7.492h1.238v1.164
			c0.294-0.45,0.64-0.787,1.037-1.01c0.401-0.223,0.863-0.334,1.385-0.334c0.861,0,1.512,0.268,1.953,0.803
			C394.376,650.605,394.596,651.388,394.596,652.422L394.596,652.422z"/>
		<path style="fill:#3B3C3D;" d="M401.995,650.59v-4.054h1.231v10.409h-1.231v-1.124c-0.259,0.446-0.586,0.778-0.983,0.997
			c-0.392,0.214-0.865,0.321-1.418,0.321c-0.905,0-1.643-0.361-2.214-1.084c-0.566-0.722-0.85-1.672-0.85-2.85
			c0-1.177,0.283-2.127,0.85-2.85c0.571-0.722,1.309-1.084,2.214-1.084c0.553,0,1.026,0.109,1.418,0.328
			C401.408,649.814,401.736,650.144,401.995,650.59L401.995,650.59z M397.801,653.205c0,0.905,0.185,1.617,0.555,2.134
			c0.375,0.513,0.887,0.769,1.539,0.769s1.164-0.256,1.539-0.769c0.375-0.517,0.562-1.229,0.562-2.134
			c0-0.905-0.187-1.614-0.562-2.127c-0.375-0.517-0.887-0.776-1.539-0.776s-1.164,0.259-1.539,0.776
			C397.986,651.591,397.801,652.3,397.801,653.205z"/>
		<path style="fill:#3B3C3D;" d="M411.527,652.175v3.659h2.167c0.727,0,1.264-0.149,1.612-0.448
			c0.352-0.303,0.528-0.765,0.528-1.385c0-0.624-0.176-1.084-0.528-1.378c-0.348-0.299-0.885-0.448-1.612-0.448L411.527,652.175
			L411.527,652.175z M411.527,648.068v3.01h2c0.66,0,1.151-0.123,1.472-0.368c0.326-0.25,0.488-0.629,0.488-1.137
			c0-0.504-0.163-0.881-0.488-1.13c-0.321-0.25-0.812-0.375-1.472-0.375H411.527z M410.176,646.957h3.452
			c1.03,0,1.824,0.214,2.381,0.642c0.557,0.428,0.836,1.037,0.836,1.826c0,0.611-0.143,1.097-0.428,1.458
			c-0.285,0.361-0.705,0.586-1.258,0.676c0.664,0.143,1.18,0.442,1.545,0.896c0.37,0.45,0.555,1.015,0.555,1.692
			c0,0.892-0.303,1.581-0.91,2.067s-1.469,0.729-2.589,0.729h-3.586L410.176,646.957L410.176,646.957z"/>
		<path style="fill:#3B3C3D;" d="M425.742,652.422v4.522h-1.231v-4.482c0-0.709-0.138-1.24-0.415-1.592
			c-0.277-0.352-0.691-0.528-1.244-0.528c-0.664,0-1.188,0.212-1.572,0.635c-0.384,0.424-0.575,1.001-0.575,1.732v4.234h-1.238
			v-10.409h1.238v4.081c0.294-0.45,0.64-0.787,1.037-1.01c0.401-0.223,0.863-0.334,1.385-0.334c0.861,0,1.512,0.268,1.953,0.803
			C425.521,650.605,425.742,651.388,425.742,652.422L425.742,652.422z"/>
		<path style="fill:#3B3C3D;" d="M428.083,653.988v-4.535h1.231v4.489c0,0.709,0.138,1.242,0.415,1.599
			c0.277,0.352,0.691,0.528,1.244,0.528c0.664,0,1.188-0.212,1.572-0.635c0.388-0.424,0.582-1.001,0.582-1.733v-4.248h1.231v7.492
			h-1.231v-1.151c-0.299,0.455-0.647,0.794-1.044,1.017c-0.392,0.219-0.85,0.328-1.371,0.328c-0.861,0-1.514-0.268-1.96-0.803
			C428.306,655.801,428.083,655.018,428.083,653.988L428.083,653.988z"/>
		<path style="fill:#3B3C3D;" d="M438.124,647.325v2.127h2.535v0.957h-2.535v4.067c0,0.611,0.083,1.004,0.247,1.177
			c0.169,0.174,0.511,0.261,1.023,0.261h1.264v1.03h-1.264c-0.95,0-1.605-0.176-1.967-0.528c-0.361-0.357-0.542-1.003-0.542-1.94
			v-4.067h-0.903v-0.957h0.903v-2.127H438.124L438.124,647.325z"/>
		<path style="fill:#3B3C3D;" d="M445.69,653.178c-0.994,0-1.683,0.114-2.067,0.341c-0.384,0.227-0.575,0.615-0.575,1.164
			c0,0.437,0.143,0.785,0.428,1.044c0.29,0.254,0.682,0.381,1.177,0.381c0.682,0,1.229-0.241,1.639-0.722
			c0.415-0.486,0.622-1.131,0.622-1.933v-0.274H445.69z M448.145,652.67v4.275h-1.231v-1.137c-0.281,0.455-0.631,0.792-1.05,1.01
			c-0.419,0.214-0.932,0.321-1.539,0.321c-0.767,0-1.378-0.214-1.833-0.642c-0.45-0.433-0.676-1.01-0.676-1.733
			c0-0.843,0.281-1.478,0.843-1.906c0.566-0.428,1.409-0.642,2.529-0.642h1.726v-0.121c0-0.566-0.187-1.003-0.562-1.311
			c-0.37-0.312-0.892-0.468-1.565-0.468c-0.428,0-0.845,0.051-1.251,0.153s-0.796,0.256-1.171,0.462v-1.137
			c0.45-0.174,0.887-0.303,1.311-0.388c0.424-0.089,0.836-0.133,1.238-0.133c1.084,0,1.893,0.281,2.428,0.843
			C447.877,650.677,448.145,651.529,448.145,652.67L448.145,652.67z"/>
		<path style="fill:#3B3C3D;" d="M456.915,652.422v4.522h-1.231v-4.482c0-0.709-0.138-1.24-0.415-1.592s-0.691-0.528-1.244-0.528
			c-0.664,0-1.188,0.212-1.572,0.635c-0.384,0.424-0.575,1.001-0.575,1.732v4.234h-1.238v-7.492h1.238v1.164
			c0.294-0.45,0.64-0.787,1.037-1.01c0.401-0.223,0.863-0.334,1.385-0.334c0.861,0,1.512,0.268,1.953,0.803
			C456.694,650.605,456.915,651.388,456.915,652.422L456.915,652.422z"/>
		<path style="fill:#3B3C3D;" d="M459.557,655.245h1.411v1.699h-1.411V655.245z"/>
		<path style="fill:#3B3C3D;" d="M34.061,896.531h1.576v11.652h-1.576V896.531z"/>
		<path style="fill:#3B3C3D;" d="M45.978,902.908v5.276h-1.436v-5.229c0-0.827-0.161-1.447-0.484-1.858
			c-0.323-0.411-0.806-0.617-1.452-0.617c-0.775,0-1.387,0.247-1.834,0.741c-0.447,0.494-0.671,1.168-0.671,2.021v4.94h-1.444
			v-8.741h1.444v1.358c0.343-0.526,0.747-0.918,1.21-1.179c0.468-0.26,1.007-0.39,1.615-0.39c1.004,0,1.764,0.312,2.279,0.937
			C45.72,900.787,45.978,901.7,45.978,902.908L45.978,902.908z"/>
		<path style="fill:#3B3C3D;" d="M50.278,896.961v2.482h2.958v1.116h-2.958v4.745c0,0.713,0.096,1.171,0.289,1.373
			c0.198,0.203,0.596,0.304,1.194,0.304h1.475v1.202h-1.475c-1.108,0-1.873-0.206-2.294-0.617c-0.421-0.416-0.632-1.171-0.632-2.263
			v-4.745h-1.054v-1.116h1.054v-2.482L50.278,896.961L50.278,896.961z"/>
		<path style="fill:#3B3C3D;" d="M62.609,903.454v0.702h-6.602c0.062,0.989,0.359,1.743,0.89,2.263
			c0.536,0.515,1.28,0.773,2.232,0.773c0.551,0,1.085-0.068,1.6-0.203c0.52-0.135,1.035-0.338,1.545-0.609v1.358
			c-0.515,0.218-1.043,0.385-1.584,0.499s-1.09,0.172-1.647,0.172c-1.394,0-2.5-0.406-3.317-1.217
			c-0.812-0.812-1.217-1.909-1.217-3.293c0-1.431,0.385-2.565,1.155-3.403c0.775-0.843,1.818-1.264,3.13-1.264
			c1.176,0,2.105,0.38,2.786,1.139C62.265,901.125,62.609,902.153,62.609,903.454L62.609,903.454z M61.173,903.033
			c-0.011-0.786-0.232-1.413-0.663-1.881c-0.427-0.468-0.994-0.702-1.701-0.702c-0.801,0-1.444,0.226-1.928,0.679
			c-0.479,0.453-0.754,1.09-0.827,1.912h5.12V903.033z"/>
		<path style="fill:#3B3C3D;" d="M70.031,900.785c-0.161-0.094-0.338-0.161-0.531-0.203c-0.187-0.046-0.395-0.069-0.624-0.069
			c-0.812,0-1.436,0.265-1.873,0.796c-0.432,0.525-0.648,1.282-0.648,2.271v4.605h-1.444v-8.741h1.444v1.358
			c0.302-0.531,0.695-0.924,1.178-1.179c0.484-0.26,1.072-0.39,1.764-0.39c0.099,0,0.208,0.008,0.328,0.024
			c0.12,0.012,0.252,0.031,0.398,0.055l0.007,1.475L70.031,900.785z"/>
		<path style="fill:#3B3C3D;" d="M78.537,902.908v5.276h-1.436v-5.229c0-0.827-0.161-1.447-0.484-1.858
			c-0.323-0.411-0.806-0.617-1.452-0.617c-0.775,0-1.387,0.247-1.834,0.741c-0.447,0.494-0.671,1.168-0.671,2.021v4.94h-1.444
			v-8.741h1.444v1.358c0.343-0.526,0.747-0.918,1.21-1.179c0.468-0.26,1.007-0.39,1.615-0.39c1.004,0,1.764,0.312,2.279,0.937
			C78.28,900.787,78.537,901.7,78.537,902.908L78.537,902.908z"/>
		<path style="fill:#3B3C3D;" d="M85.389,903.789c-1.16,0-1.964,0.133-2.412,0.398s-0.671,0.718-0.671,1.358
			c0,0.51,0.166,0.916,0.499,1.217c0.338,0.297,0.796,0.445,1.374,0.445c0.796,0,1.433-0.281,1.912-0.843
			c0.484-0.567,0.726-1.319,0.726-2.255v-0.32L85.389,903.789L85.389,903.789z M88.254,903.196v4.987h-1.436v-1.327
			c-0.328,0.531-0.736,0.923-1.225,1.178c-0.489,0.25-1.087,0.375-1.795,0.375c-0.895,0-1.608-0.25-2.138-0.749
			c-0.525-0.505-0.788-1.178-0.788-2.021c0-0.983,0.328-1.725,0.983-2.224c0.661-0.499,1.644-0.749,2.95-0.749h2.013v-0.141
			c0-0.661-0.219-1.171-0.656-1.53c-0.432-0.364-1.041-0.546-1.826-0.546c-0.499,0-0.986,0.06-1.459,0.179
			c-0.473,0.119-0.929,0.299-1.366,0.539v-1.327c0.525-0.203,1.035-0.354,1.53-0.453c0.494-0.104,0.976-0.155,1.444-0.155
			c1.264,0,2.209,0.328,2.833,0.983C87.941,900.871,88.254,901.865,88.254,903.196L88.254,903.196z"/>
		<path style="fill:#3B3C3D;" d="M92.64,896.961v2.482h2.958v1.116H92.64v4.745c0,0.713,0.096,1.171,0.289,1.373
			c0.198,0.203,0.596,0.304,1.194,0.304h1.475v1.202h-1.475c-1.108,0-1.873-0.206-2.294-0.617c-0.421-0.416-0.632-1.171-0.632-2.263
			v-4.745h-1.054v-1.116h1.054v-2.482L92.64,896.961L92.64,896.961z"/>
		<path style="fill:#3B3C3D;" d="M97.494,899.442h1.436v8.741h-1.436V899.442z M97.494,896.04h1.436v1.818h-1.436V896.04z"/>
		<path style="fill:#3B3C3D;" d="M105.314,900.449c-0.77,0-1.379,0.302-1.826,0.905c-0.447,0.598-0.671,1.42-0.671,2.466
			c0,1.046,0.221,1.87,0.663,2.474c0.447,0.598,1.059,0.897,1.834,0.897c0.765,0,1.371-0.302,1.818-0.905
			c0.447-0.604,0.671-1.426,0.671-2.466c0-1.035-0.224-1.855-0.671-2.458C106.685,900.753,106.079,900.449,105.314,900.449
			L105.314,900.449z M105.314,899.232c1.249,0,2.229,0.406,2.942,1.217c0.713,0.812,1.069,1.935,1.069,3.371
			c0,1.431-0.356,2.555-1.069,3.371c-0.713,0.812-1.694,1.217-2.942,1.217c-1.254,0-2.237-0.406-2.95-1.217
			c-0.708-0.817-1.061-1.941-1.061-3.371c0-1.436,0.354-2.56,1.061-3.371C103.076,899.638,104.06,899.232,105.314,899.232z"/>
		<path style="fill:#3B3C3D;" d="M118.963,902.908v5.276h-1.436v-5.229c0-0.827-0.161-1.447-0.484-1.858s-0.806-0.617-1.452-0.617
			c-0.775,0-1.387,0.247-1.834,0.741s-0.671,1.168-0.671,2.021v4.94h-1.444v-8.741h1.444v1.358c0.343-0.526,0.747-0.918,1.21-1.179
			c0.468-0.26,1.007-0.39,1.615-0.39c1.004,0,1.764,0.312,2.279,0.937C118.706,900.787,118.963,901.7,118.963,902.908
			L118.963,902.908z"/>
		<path style="fill:#3B3C3D;" d="M125.816,903.789c-1.16,0-1.964,0.133-2.412,0.398c-0.447,0.265-0.671,0.718-0.671,1.358
			c0,0.51,0.166,0.916,0.499,1.217c0.338,0.297,0.796,0.445,1.374,0.445c0.796,0,1.433-0.281,1.912-0.843
			c0.484-0.567,0.726-1.319,0.726-2.255v-0.32L125.816,903.789L125.816,903.789z M128.68,903.196v4.987h-1.436v-1.327
			c-0.328,0.531-0.736,0.923-1.225,1.178c-0.489,0.25-1.087,0.375-1.795,0.375c-0.895,0-1.608-0.25-2.138-0.749
			c-0.525-0.505-0.788-1.178-0.788-2.021c0-0.983,0.328-1.725,0.983-2.224c0.661-0.499,1.644-0.749,2.95-0.749h2.013v-0.141
			c0-0.661-0.219-1.171-0.656-1.53c-0.432-0.364-1.041-0.546-1.826-0.546c-0.499,0-0.986,0.06-1.459,0.179
			c-0.473,0.119-0.929,0.299-1.366,0.539v-1.327c0.525-0.203,1.035-0.354,1.53-0.453c0.494-0.104,0.976-0.155,1.444-0.155
			c1.264,0,2.209,0.328,2.833,0.983C128.368,900.871,128.68,901.865,128.68,903.196L128.68,903.196z"/>
		<path style="fill:#3B3C3D;" d="M131.645,896.04h1.436v12.143h-1.436V896.04z"/>
		<path style="fill:#3B3C3D;" d="M149.954,897.429v1.662c-0.531-0.494-1.098-0.864-1.701-1.108
			c-0.598-0.244-1.236-0.367-1.912-0.367c-1.332,0-2.352,0.408-3.059,1.225c-0.708,0.812-1.061,1.987-1.061,3.527
			c0,1.535,0.354,2.711,1.061,3.528c0.708,0.812,1.727,1.217,3.059,1.217c0.676,0,1.314-0.122,1.912-0.367
			c0.604-0.245,1.171-0.614,1.701-1.108v1.647c-0.551,0.375-1.137,0.656-1.756,0.843c-0.614,0.187-1.264,0.281-1.951,0.281
			c-1.764,0-3.153-0.538-4.167-1.615c-1.015-1.082-1.522-2.557-1.522-4.425c0-1.873,0.507-3.348,1.522-4.425
			c1.015-1.082,2.404-1.623,4.167-1.623c0.697,0,1.353,0.094,1.967,0.281C148.833,896.784,149.413,897.06,149.954,897.429
			L149.954,897.429z"/>
		<path style="fill:#3B3C3D;" d="M157.407,900.785c-0.161-0.094-0.338-0.161-0.531-0.203c-0.187-0.046-0.395-0.069-0.624-0.069
			c-0.812,0-1.436,0.265-1.873,0.796c-0.432,0.525-0.648,1.282-0.648,2.271v4.605h-1.444v-8.741h1.444v1.358
			c0.302-0.531,0.695-0.924,1.178-1.179c0.484-0.26,1.072-0.39,1.764-0.39c0.099,0,0.208,0.008,0.328,0.024
			c0.12,0.012,0.252,0.031,0.398,0.055l0.007,1.475L157.407,900.785z"/>
		<path style="fill:#3B3C3D;" d="M166.062,903.454v0.702h-6.602c0.062,0.989,0.359,1.743,0.89,2.263
			c0.536,0.515,1.28,0.773,2.232,0.773c0.551,0,1.085-0.068,1.6-0.203c0.52-0.135,1.035-0.338,1.545-0.609v1.358
			c-0.515,0.218-1.043,0.385-1.584,0.499c-0.541,0.115-1.09,0.172-1.647,0.172c-1.394,0-2.5-0.406-3.317-1.217
			c-0.812-0.812-1.217-1.909-1.217-3.293c0-1.431,0.385-2.565,1.155-3.403c0.775-0.843,1.818-1.264,3.13-1.264
			c1.176,0,2.105,0.38,2.786,1.139C165.719,901.125,166.062,902.153,166.062,903.454L166.062,903.454z M164.626,903.033
			c-0.011-0.786-0.232-1.413-0.663-1.881c-0.427-0.468-0.994-0.702-1.701-0.702c-0.801,0-1.444,0.226-1.928,0.679
			c-0.479,0.453-0.754,1.09-0.827,1.912h5.12L164.626,903.033z"/>
		<path style="fill:#3B3C3D;" d="M174.171,900.769v-4.729h1.436v12.143h-1.436v-1.311c-0.302,0.52-0.684,0.908-1.147,1.163
			c-0.458,0.25-1.009,0.375-1.655,0.375c-1.056,0-1.917-0.421-2.583-1.264c-0.661-0.843-0.991-1.951-0.991-3.325
			c0-1.373,0.33-2.482,0.991-3.325c0.666-0.843,1.527-1.264,2.583-1.264c0.645,0,1.197,0.128,1.655,0.382
			C173.487,899.864,173.869,900.249,174.171,900.769L174.171,900.769z M169.278,903.821c0,1.056,0.216,1.886,0.648,2.49
			c0.437,0.598,1.035,0.897,1.795,0.897c0.76,0,1.358-0.299,1.795-0.897c0.437-0.604,0.656-1.433,0.656-2.49
			c0-1.056-0.219-1.883-0.656-2.482c-0.437-0.604-1.035-0.905-1.795-0.905c-0.76,0-1.358,0.302-1.795,0.905
			C169.493,901.937,169.278,902.765,169.278,903.821z"/>
		<path style="fill:#3B3C3D;" d="M178.565,899.442h1.436v8.741h-1.436V899.442z M178.565,896.04h1.436v1.818h-1.436V896.04z"/>
		<path style="fill:#3B3C3D;" d="M184.418,896.961v2.482h2.958v1.116h-2.958v4.745c0,0.713,0.096,1.171,0.289,1.373
			c0.198,0.203,0.596,0.304,1.194,0.304h1.475v1.202h-1.475c-1.108,0-1.873-0.206-2.294-0.617c-0.421-0.416-0.632-1.171-0.632-2.263
			v-4.745h-1.054v-1.116h1.054v-2.482L184.418,896.961L184.418,896.961z"/>
		<path style="fill:#3B3C3D;" d="M203.148,897.429v1.662c-0.531-0.494-1.098-0.864-1.701-1.108
			c-0.598-0.244-1.236-0.367-1.912-0.367c-1.332,0-2.352,0.408-3.059,1.225c-0.708,0.812-1.061,1.987-1.061,3.527
			c0,1.535,0.354,2.711,1.061,3.528c0.708,0.812,1.727,1.217,3.059,1.217c0.676,0,1.314-0.122,1.912-0.367
			c0.604-0.245,1.171-0.614,1.701-1.108v1.647c-0.552,0.375-1.137,0.656-1.756,0.843c-0.614,0.187-1.264,0.281-1.951,0.281
			c-1.764,0-3.153-0.538-4.167-1.615c-1.015-1.082-1.522-2.557-1.522-4.425c0-1.873,0.507-3.348,1.522-4.425
			c1.015-1.082,2.404-1.623,4.167-1.623c0.697,0,1.353,0.094,1.967,0.281C202.027,896.784,202.607,897.06,203.148,897.429
			L203.148,897.429z"/>
		<path style="fill:#3B3C3D;" d="M209.509,903.789c-1.16,0-1.964,0.133-2.412,0.398c-0.447,0.265-0.671,0.718-0.671,1.358
			c0,0.51,0.166,0.916,0.499,1.217c0.338,0.297,0.796,0.445,1.374,0.445c0.796,0,1.433-0.281,1.912-0.843
			c0.484-0.567,0.726-1.319,0.726-2.255v-0.32L209.509,903.789L209.509,903.789z M212.373,903.196v4.987h-1.436v-1.327
			c-0.328,0.531-0.736,0.923-1.225,1.178c-0.489,0.25-1.087,0.375-1.795,0.375c-0.895,0-1.608-0.25-2.138-0.749
			c-0.525-0.505-0.788-1.178-0.788-2.021c0-0.983,0.328-1.725,0.983-2.224c0.661-0.499,1.644-0.749,2.95-0.749h2.013v-0.141
			c0-0.661-0.219-1.171-0.656-1.53c-0.432-0.364-1.041-0.546-1.826-0.546c-0.499,0-0.986,0.06-1.459,0.179
			c-0.473,0.119-0.929,0.299-1.366,0.539v-1.327c0.525-0.203,1.035-0.354,1.53-0.453c0.494-0.104,0.976-0.155,1.444-0.155
			c1.264,0,2.209,0.328,2.833,0.983C212.061,900.871,212.373,901.865,212.373,903.196L212.373,903.196z"/>
		<path style="fill:#3B3C3D;" d="M220.403,900.785c-0.161-0.094-0.338-0.161-0.531-0.203c-0.187-0.046-0.395-0.069-0.624-0.069
			c-0.812,0-1.436,0.265-1.873,0.796c-0.432,0.525-0.648,1.282-0.648,2.271v4.605h-1.444v-8.741h1.444v1.358
			c0.302-0.531,0.695-0.924,1.178-1.179c0.484-0.26,1.072-0.39,1.764-0.39c0.099,0,0.208,0.008,0.328,0.024
			c0.12,0.012,0.252,0.031,0.398,0.055l0.007,1.475L220.403,900.785z"/>
		<path style="fill:#3B3C3D;" d="M227.396,900.769v-4.729h1.436v12.143h-1.436v-1.311c-0.302,0.52-0.684,0.908-1.147,1.163
			c-0.458,0.25-1.009,0.375-1.654,0.375c-1.056,0-1.917-0.421-2.583-1.264c-0.661-0.843-0.991-1.951-0.991-3.325
			c0-1.373,0.33-2.482,0.991-3.325c0.666-0.843,1.527-1.264,2.583-1.264c0.645,0,1.197,0.128,1.654,0.382
			C226.712,899.864,227.094,900.249,227.396,900.769L227.396,900.769z M222.503,903.821c0,1.056,0.216,1.886,0.648,2.49
			c0.437,0.598,1.035,0.897,1.795,0.897c0.76,0,1.358-0.299,1.795-0.897c0.437-0.604,0.656-1.433,0.656-2.49
			c0-1.056-0.219-1.883-0.656-2.482c-0.437-0.604-1.035-0.905-1.795-0.905c-0.76,0-1.358,0.302-1.795,0.905
			C222.719,901.937,222.503,902.765,222.503,903.821z"/>
		<path style="fill:#3B3C3D;" d="M469.501,904.608l-6.658,2.542v-0.941l5.606-2.109l-5.606-2.114v-0.937l6.658,2.537V904.608z"/>
		<path style="fill:#3B3C3D;" d="M463.356,895.096h0.95c-0.282,0.303-0.494,0.627-0.633,0.972c-0.14,0.342-0.21,0.706-0.21,1.093
			c0,0.761,0.233,1.344,0.7,1.748c0.464,0.404,1.136,0.606,2.016,0.606c0.877,0,1.549-0.202,2.016-0.606
			c0.464-0.404,0.696-0.987,0.696-1.748c0-0.386-0.07-0.751-0.21-1.093c-0.14-0.345-0.351-0.669-0.633-0.972h0.941
			c0.214,0.315,0.375,0.65,0.482,1.003c0.107,0.351,0.161,0.722,0.161,1.115c0,1.008-0.308,1.802-0.923,2.381
			c-0.618,0.58-1.461,0.87-2.529,0.87c-1.07,0-1.913-0.29-2.529-0.87c-0.618-0.58-0.928-1.374-0.928-2.381
			c0-0.398,0.054-0.773,0.161-1.124C462.987,895.736,463.145,895.405,463.356,895.096L463.356,895.096z"/>
		<path style="fill:#3B3C3D;" d="M462.843,894.619v-5.632h0.758v2.364h5.9v0.905h-5.9v2.364L462.843,894.619L462.843,894.619z"/>
		<path style="fill:#3B3C3D;" d="M462.843,885.204v-0.901h6.658v0.901H462.843z"/>
		<path style="fill:#3B3C3D;" d="M462.843,882.511v-1.213l5.57-2.952h-5.57v-0.874h6.658v1.213l-5.57,2.952h5.57v0.874H462.843z"/>
		<path style="fill:#3B3C3D;" d="M468.743,871.915v-3.144h0.758v4.228h-0.758c-0.354-0.342-0.828-0.807-1.423-1.396
			c-0.598-0.592-0.983-0.963-1.155-1.115c-0.324-0.288-0.598-0.489-0.821-0.602c-0.226-0.116-0.447-0.174-0.664-0.174
			c-0.354,0-0.642,0.125-0.865,0.375c-0.223,0.247-0.335,0.569-0.334,0.968c0,0.282,0.049,0.581,0.147,0.896
			c0.098,0.312,0.247,0.647,0.446,1.003h-0.91c-0.146-0.363-0.256-0.702-0.33-1.017c-0.074-0.315-0.111-0.604-0.111-0.865
			c0-0.69,0.172-1.24,0.517-1.65c0.345-0.41,0.806-0.615,1.382-0.615c0.274,0,0.534,0.052,0.78,0.155
			c0.244,0.101,0.532,0.287,0.865,0.557c0.086,0.074,0.336,0.311,0.749,0.709C467.428,870.627,468.003,871.189,468.743,871.915
			L468.743,871.915z"/>
		<path style="fill:#3B3C3D;" d="M463.436,864.949c0,0.464,0.229,0.813,0.687,1.048c0.455,0.232,1.14,0.348,2.056,0.348
			c0.913,0,1.598-0.116,2.056-0.348c0.455-0.235,0.682-0.584,0.682-1.048c0-0.467-0.227-0.816-0.682-1.048
			c-0.458-0.235-1.143-0.352-2.056-0.352c-0.916,0-1.601,0.117-2.056,0.352C463.665,864.133,463.436,864.482,463.436,864.949z
			 M462.723,864.949c0-0.746,0.296-1.316,0.887-1.708c0.589-0.395,1.445-0.593,2.569-0.593c1.121,0,1.977,0.198,2.569,0.593
			c0.589,0.393,0.883,0.962,0.883,1.708c0,0.746-0.294,1.317-0.883,1.712c-0.592,0.393-1.448,0.589-2.569,0.589
			c-1.124,0-1.98-0.196-2.569-0.589C463.019,866.266,462.723,865.695,462.723,864.949z"/>
		<path style="fill:#3B3C3D;" d="M468.743,860.904v-1.472h-5.079l0.321,1.601h-0.821l-0.321-1.592v-0.901h5.9v-1.472h0.758v3.835
			H468.743z"/>
		<path style="fill:#3B3C3D;" d="M465.911,852.516c0.092-0.431,0.284-0.767,0.575-1.008c0.291-0.244,0.651-0.366,1.079-0.366
			c0.657,0,1.165,0.226,1.525,0.678s0.54,1.094,0.54,1.927c0,0.279-0.028,0.568-0.085,0.865c-0.053,0.294-0.135,0.599-0.245,0.914
			h-0.87c0.146-0.25,0.256-0.523,0.33-0.821c0.074-0.297,0.111-0.608,0.111-0.932c0-0.565-0.112-0.994-0.334-1.289
			c-0.223-0.297-0.547-0.446-0.972-0.446c-0.392,0-0.699,0.138-0.919,0.415c-0.223,0.273-0.334,0.656-0.334,1.146v0.776h-0.74
			v-0.812c0-0.443-0.088-0.782-0.263-1.017c-0.178-0.235-0.434-0.352-0.767-0.352c-0.342,0-0.604,0.122-0.785,0.366
			c-0.184,0.241-0.276,0.587-0.276,1.039c0,0.247,0.027,0.511,0.08,0.794c0.053,0.282,0.137,0.593,0.25,0.932h-0.803
			c-0.095-0.342-0.167-0.661-0.214-0.959c-0.048-0.3-0.071-0.583-0.071-0.847c0-0.684,0.156-1.225,0.468-1.623
			c0.309-0.398,0.728-0.597,1.258-0.597c0.369,0,0.681,0.105,0.937,0.317C465.638,851.826,465.813,852.126,465.911,852.516
			L465.911,852.516z"/>
		<path style="fill:#3B3C3D;" d="M463.436,847.503c0,0.464,0.229,0.813,0.687,1.048c0.455,0.232,1.14,0.348,2.056,0.348
			c0.913,0,1.598-0.116,2.056-0.348c0.455-0.235,0.682-0.584,0.682-1.048c0-0.467-0.227-0.816-0.682-1.048
			c-0.458-0.235-1.143-0.352-2.056-0.352c-0.916,0-1.601,0.117-2.056,0.352C463.665,846.687,463.436,847.036,463.436,847.503z
			 M462.723,847.503c0-0.746,0.296-1.316,0.887-1.708c0.589-0.395,1.445-0.593,2.569-0.593c1.121,0,1.977,0.198,2.569,0.593
			c0.589,0.392,0.883,0.962,0.883,1.708c0,0.746-0.294,1.317-0.883,1.712c-0.592,0.392-1.448,0.589-2.569,0.589
			c-1.124,0-1.98-0.196-2.569-0.589C463.019,848.82,462.723,848.249,462.723,847.503z"/>
		<path style="fill:#3B3C3D;" d="M465.911,840.885c0.092-0.431,0.284-0.767,0.575-1.008c0.291-0.244,0.651-0.366,1.079-0.366
			c0.657,0,1.165,0.226,1.525,0.678c0.36,0.452,0.54,1.094,0.54,1.927c0,0.28-0.028,0.568-0.085,0.865
			c-0.053,0.294-0.135,0.599-0.245,0.914h-0.87c0.146-0.25,0.256-0.523,0.33-0.821s0.111-0.608,0.111-0.932
			c0-0.565-0.112-0.994-0.334-1.289c-0.223-0.297-0.547-0.446-0.972-0.446c-0.392,0-0.699,0.138-0.919,0.415
			c-0.223,0.273-0.334,0.656-0.334,1.146v0.776h-0.74v-0.812c0-0.443-0.088-0.782-0.263-1.017c-0.178-0.235-0.434-0.352-0.767-0.352
			c-0.342,0-0.604,0.122-0.785,0.366c-0.184,0.241-0.276,0.587-0.276,1.039c0,0.247,0.027,0.511,0.08,0.794
			c0.053,0.282,0.137,0.593,0.25,0.932h-0.803c-0.095-0.342-0.167-0.662-0.214-0.959c-0.048-0.3-0.071-0.583-0.071-0.847
			c0-0.684,0.156-1.225,0.468-1.623c0.309-0.398,0.728-0.597,1.258-0.597c0.369,0,0.681,0.106,0.937,0.317
			C465.638,840.195,465.813,840.496,465.911,840.885L465.911,840.885z"/>
		<path style="fill:#3B3C3D;" d="M468.743,837.643v-1.472h-5.079l0.321,1.601h-0.821l-0.321-1.592v-0.901h5.9v-1.472h0.758v3.835
			H468.743z"/>
		<path style="fill:#3B3C3D;" d="M463.628,829.509l3.554,2.275v-2.275H463.628z M462.843,829.745v-1.133h4.339v-0.95h0.749v0.95
			h1.57v0.896h-1.57v3.006h-0.87L462.843,829.745L462.843,829.745z"/>
		<path style="fill:#3B3C3D;" d="M463.436,821.334c0,0.464,0.229,0.813,0.687,1.048c0.455,0.232,1.14,0.348,2.056,0.348
			c0.913,0,1.598-0.116,2.056-0.348c0.455-0.235,0.682-0.584,0.682-1.048c0-0.467-0.227-0.816-0.682-1.048
			c-0.458-0.235-1.143-0.352-2.056-0.352c-0.916,0-1.601,0.117-2.056,0.352C463.665,820.518,463.436,820.867,463.436,821.334z
			 M462.723,821.334c0-0.746,0.296-1.315,0.887-1.708c0.589-0.395,1.445-0.593,2.569-0.593c1.121,0,1.977,0.198,2.569,0.593
			c0.589,0.393,0.883,0.962,0.883,1.708c0,0.746-0.294,1.317-0.883,1.712c-0.592,0.393-1.448,0.589-2.569,0.589
			c-1.124,0-1.98-0.196-2.569-0.589C463.019,822.651,462.723,822.08,462.723,821.334z"/>
		<path style="fill:#3B3C3D;" d="M465.911,814.716c0.092-0.431,0.284-0.767,0.575-1.008c0.291-0.244,0.651-0.366,1.079-0.366
			c0.657,0,1.165,0.226,1.525,0.678s0.54,1.094,0.54,1.927c0,0.279-0.028,0.568-0.085,0.865c-0.053,0.294-0.135,0.599-0.245,0.914
			h-0.87c0.146-0.25,0.256-0.523,0.33-0.821c0.074-0.297,0.111-0.608,0.111-0.932c0-0.565-0.112-0.995-0.334-1.289
			c-0.223-0.297-0.547-0.446-0.972-0.446c-0.392,0-0.699,0.138-0.919,0.415c-0.223,0.274-0.334,0.656-0.334,1.146v0.776h-0.74
			v-0.812c0-0.443-0.088-0.782-0.263-1.017c-0.178-0.235-0.434-0.352-0.767-0.352c-0.342,0-0.604,0.122-0.785,0.366
			c-0.184,0.241-0.276,0.587-0.276,1.039c0,0.247,0.027,0.511,0.08,0.794c0.053,0.282,0.137,0.593,0.25,0.932h-0.803
			c-0.095-0.342-0.167-0.662-0.214-0.959c-0.048-0.3-0.071-0.583-0.071-0.847c0-0.684,0.156-1.225,0.468-1.623
			c0.309-0.398,0.728-0.597,1.258-0.597c0.369,0,0.681,0.106,0.937,0.317C465.638,814.027,465.813,814.327,465.911,814.716
			L465.911,814.716z"/>
		<path style="fill:#3B3C3D;" d="M462.843,810.288v-0.758l7.505,2.319v0.758L462.843,810.288z"/>
		<path style="fill:#3B3C3D;" d="M468.743,808.388v-1.472h-5.079l0.321,1.601h-0.821l-0.321-1.592v-0.901h5.9v-1.472h0.758v3.835
			H468.743z"/>
		<path style="fill:#3B3C3D;" d="M465.911,800c0.092-0.431,0.284-0.767,0.575-1.008c0.291-0.244,0.651-0.366,1.079-0.366
			c0.657,0,1.165,0.226,1.525,0.678s0.54,1.094,0.54,1.927c0,0.279-0.028,0.568-0.085,0.865c-0.053,0.294-0.135,0.599-0.245,0.914
			h-0.87c0.146-0.25,0.256-0.523,0.33-0.821c0.074-0.297,0.111-0.608,0.111-0.932c0-0.565-0.112-0.994-0.334-1.289
			c-0.223-0.297-0.547-0.446-0.972-0.446c-0.392,0-0.699,0.138-0.919,0.415c-0.223,0.274-0.334,0.656-0.334,1.146v0.776h-0.74
			v-0.812c0-0.443-0.088-0.782-0.263-1.017c-0.178-0.235-0.434-0.352-0.767-0.352c-0.342,0-0.604,0.122-0.785,0.366
			c-0.184,0.241-0.276,0.587-0.276,1.039c0,0.247,0.027,0.511,0.08,0.794c0.053,0.282,0.137,0.593,0.25,0.932h-0.803
			c-0.095-0.342-0.167-0.661-0.214-0.959c-0.048-0.3-0.071-0.583-0.071-0.847c0-0.684,0.156-1.225,0.468-1.623
			c0.309-0.398,0.728-0.597,1.258-0.597c0.369,0,0.681,0.105,0.937,0.317C465.638,799.31,465.813,799.61,465.911,800L465.911,800z"
			/>
		<path style="fill:#3B3C3D;" d="M462.843,794.086v-0.901h6.658v0.901H462.843z"/>
		<path style="fill:#3B3C3D;" d="M463.356,786.407h0.95c-0.282,0.303-0.494,0.627-0.633,0.972c-0.14,0.342-0.21,0.706-0.21,1.093
			c0,0.761,0.233,1.344,0.7,1.748c0.464,0.404,1.136,0.606,2.016,0.606c0.877,0,1.549-0.202,2.016-0.606
			c0.464-0.404,0.696-0.987,0.696-1.748c0-0.386-0.07-0.751-0.21-1.093c-0.14-0.345-0.351-0.669-0.633-0.972h0.941
			c0.214,0.315,0.375,0.649,0.482,1.003c0.107,0.351,0.161,0.722,0.161,1.115c0,1.008-0.308,1.802-0.923,2.381
			c-0.618,0.58-1.461,0.87-2.529,0.87c-1.07,0-1.913-0.29-2.529-0.87c-0.618-0.58-0.928-1.373-0.928-2.381
			c0-0.398,0.054-0.773,0.161-1.124C462.987,787.048,463.145,786.716,463.356,786.407L463.356,786.407z"/>
		<path style="fill:#3B3C3D;" d="M463.731,782.781l3.313,1.222v-2.448L463.731,782.781L463.731,782.781z M462.843,783.29v-1.021
			l6.658-2.537v0.937l-1.708,0.606v3.001l1.708,0.606v0.95L462.843,783.29L462.843,783.29z"/>
		<path style="fill:#3B3C3D;" d="M462.843,775.766v-3.537h0.758v2.711h1.632c-0.045-0.131-0.077-0.262-0.098-0.392
			c-0.024-0.131-0.036-0.262-0.036-0.393c0-0.743,0.204-1.332,0.611-1.766c0.407-0.434,0.959-0.651,1.655-0.651
			c0.717,0,1.274,0.223,1.672,0.669c0.395,0.446,0.593,1.075,0.593,1.886c0,0.279-0.024,0.565-0.071,0.856
			c-0.048,0.288-0.119,0.587-0.214,0.897h-0.905c0.146-0.268,0.254-0.544,0.326-0.829c0.071-0.285,0.107-0.587,0.107-0.905
			c0-0.514-0.135-0.922-0.406-1.222c-0.271-0.3-0.638-0.45-1.102-0.45s-0.831,0.15-1.102,0.45c-0.271,0.3-0.406,0.708-0.406,1.222
			c0,0.241,0.027,0.482,0.08,0.722c0.053,0.238,0.137,0.482,0.25,0.731L462.843,775.766L462.843,775.766z"/>
		<path style="fill:#3B3C3D;" d="M468.743,769.804v-1.472h-5.079l0.321,1.601h-0.821l-0.321-1.592v-0.901h5.9v-1.472h0.758v3.835
			H468.743z"/>
		<path style="fill:#3B3C3D;" d="M468.743,763.988v-1.472h-5.079l0.321,1.601h-0.821l-0.321-1.592v-0.901h5.9v-1.472h0.758v3.835
			H468.743z"/>
		<path style="fill:#3B3C3D;" d="M463.436,756.403c0,0.464,0.229,0.813,0.687,1.048c0.455,0.232,1.14,0.348,2.056,0.348
			c0.913,0,1.598-0.116,2.056-0.348c0.455-0.235,0.682-0.584,0.682-1.048c0-0.467-0.227-0.816-0.682-1.048
			c-0.458-0.235-1.143-0.352-2.056-0.352c-0.916,0-1.601,0.117-2.056,0.352C463.665,755.587,463.436,755.936,463.436,756.403z
			 M462.723,756.403c0-0.746,0.296-1.316,0.887-1.708c0.589-0.395,1.445-0.593,2.569-0.593c1.121,0,1.977,0.198,2.569,0.593
			c0.589,0.392,0.883,0.962,0.883,1.708c0,0.746-0.294,1.317-0.883,1.712c-0.592,0.392-1.448,0.589-2.569,0.589
			c-1.124,0-1.98-0.196-2.569-0.589C463.019,757.72,462.723,757.149,462.723,756.403z"/>
	</g>
</g>
</svg>