<?xml version="1.0" encoding="UTF-8"?>
<svg version="1.1" xmlns="http://www.w3.org/2000/svg" width="512" height="512">
<path d="M0 0 C1.29071159 -0.00744736 1.29071159 -0.00744736 2.60749817 -0.01504517 C5.45660194 -0.02966091 8.30565004 -0.03646755 11.15478516 -0.04199219 C13.13392132 -0.04774379 15.11305747 -0.05350152 17.0921936 -0.05926514 C21.24326843 -0.06977322 25.3943239 -0.07561726 29.54541016 -0.07910156 C34.86410215 -0.08458821 40.18253839 -0.10862074 45.50115013 -0.13707352 C49.5898005 -0.15569736 53.6783892 -0.16090535 57.7670784 -0.16243744 C59.72788518 -0.16546468 61.68869085 -0.1734956 63.64945602 -0.18662262 C66.39280416 -0.20367898 69.13552659 -0.20180397 71.87890625 -0.1953125 C73.09319557 -0.20913467 73.09319557 -0.20913467 74.33201599 -0.22323608 C78.93665336 -0.18910777 81.89923043 0.32010742 85.56884766 3.16113281 C87.95131375 5.79006092 88.56884766 6.54947459 88.56884766 10.16113281 C89.17986328 10.12632812 89.79087891 10.09152344 90.42041016 10.05566406 C124.52556771 9.04691997 148.7098056 23.29669883 175.46386719 42.52294922 C199.70858417 59.89821384 222.67964204 66.28196556 252.13916016 69.53417969 C264.63473967 71.02740144 278.44182478 73.12855879 287.22900391 83.03222656 C290.56884766 87.507059 290.56884766 87.507059 290.56884766 90.16113281 C301.69370495 85.66887861 312.68068843 80.93394993 323.60244751 75.96929932 C327.9459103 73.99574556 332.29422552 72.03295803 336.64306641 70.07128906 C337.54034958 69.66654358 338.43763275 69.2617981 339.36210632 68.8447876 C350.88536792 63.65593733 362.46337106 58.59195764 374.04248047 53.52929688 C375.71927439 52.79598099 377.39603275 52.0625838 379.07275391 51.32910156 C379.88275848 50.97478058 380.69276306 50.62045959 381.52731323 50.25540161 C386.68667989 47.99513072 391.83358076 45.70867977 396.97119141 43.39941406 C397.60990677 43.1128595 398.24862213 42.82630493 398.9066925 42.53106689 C401.8130467 41.2267685 404.71699473 39.91761132 407.61694336 38.59912109 C408.60654053 38.1542334 409.5961377 37.7093457 410.61572266 37.25097656 C411.45973633 36.86804443 412.30375 36.4851123 413.17333984 36.09057617 C421.63572758 32.80721803 431.73690822 33.13113275 440.24853516 36.05957031 C447.43283346 39.47029779 451.75432215 44.84654675 454.56884766 52.16113281 C456.89635642 59.14365911 456.73340131 67.67916362 453.69384766 74.41113281 C447.15833153 85.51428866 435.98958331 92.96064576 425.83105469 100.47998047 C423.67756375 102.08034078 421.54153096 103.70136842 419.40869141 105.32910156 C405.24557152 116.04906509 390.37910917 125.73741459 375.56274414 135.51953125 C371.55251586 138.16883399 367.55409427 140.83562859 363.55712891 143.50488281 C358.56103398 146.83959488 353.55561898 150.15738373 348.50634766 153.41113281 C347.81484619 153.8574707 347.12334473 154.30380859 346.41088867 154.76367188 C331.90888954 164.10908526 317.35004455 173.3671491 302.68969727 182.46240234 C297.51487137 185.67517127 292.37463123 188.92819065 287.27978516 192.26660156 C266.06675966 206.08235791 248.45670412 211.96261907 222.95385742 206.74145508 C214.98826511 204.97981763 207.09696664 202.90640933 199.20838547 200.83177948 C195.25633593 199.79895322 191.29621332 198.79806948 187.33666992 197.79443359 C180.74862492 196.12125011 174.16492521 194.43191461 167.58349609 192.73291016 C157.62506043 190.16471711 147.65028908 187.66404697 137.67041016 185.18066406 C136.87494215 184.98265009 136.07947414 184.78463612 135.25990105 184.58062172 C132.12281025 183.79979602 128.98566821 183.01917715 125.84839535 182.23908329 C117.85567835 180.2513152 109.8663383 178.25012696 101.87744141 176.24707031 C100.62174347 175.93232254 99.36604553 175.61757477 98.07229614 175.29328918 C95.23777333 174.58272971 92.40328733 173.87202388 89.56884766 173.16113281 C89.10478516 174.11375 88.64072266 175.06636719 88.16259766 176.04785156 C86.08510769 180.10608563 84.89397028 181.71942527 80.56884766 183.16113281 C77.75576129 183.26793376 74.96708792 183.31839234 72.15356445 183.32226562 C71.29469635 183.32723053 70.43582825 183.33219543 69.55093384 183.33731079 C66.70663657 183.35192807 63.86239508 183.35873386 61.01806641 183.36425781 C59.04132587 183.37000983 57.06458535 183.37576756 55.08784485 183.38153076 C50.94096619 183.39203965 46.7941069 183.39788299 42.6472168 183.40136719 C37.33759101 183.40685024 32.02822189 183.43087477 26.71867657 183.45933914 C22.63427486 183.47797785 18.5499348 183.48317179 14.46549416 183.48470306 C12.50830495 183.48772757 10.55111678 183.49574927 8.59396935 183.50888824 C5.85322007 183.52597364 3.11309562 183.52406235 0.37231445 183.51757812 C-0.43361649 183.52679291 -1.23954742 183.53600769 -2.06990051 183.54550171 C-6.9108961 183.5096871 -10.25040952 182.86499747 -14.43115234 180.16113281 C-16.8764421 176.49319818 -16.68905079 174.7177964 -16.70530701 170.3421936 C-16.71054369 169.6448707 -16.71578036 168.94754781 -16.72117573 168.22909391 C-16.73620621 165.88688388 -16.73688154 163.54489171 -16.73754883 161.20263672 C-16.74516826 159.5255954 -16.75359538 157.84855758 -16.76277161 156.17152405 C-16.7847445 151.61158734 -16.79351921 147.0517177 -16.79859805 142.49173403 C-16.80223824 139.64383807 -16.80847652 136.79595977 -16.81559944 133.94807053 C-16.84010335 124.01550268 -16.85314793 114.08298715 -16.85668945 104.15039062 C-16.86032577 94.88730025 -16.89022553 85.62454102 -16.93209404 76.36155188 C-16.9667662 68.41242287 -16.98223736 60.46340376 -16.98293549 52.51419961 C-16.98372934 47.76485805 -16.99251733 43.01585366 -17.02093315 38.26659012 C-17.04706136 33.79968051 -17.04934862 29.33338889 -17.03327751 24.86643791 C-17.03145883 23.22693856 -17.03819152 21.5874041 -17.05409622 19.94798088 C-17.07449088 17.7092656 -17.06404744 15.47272608 -17.04588318 13.23403931 C-17.04789451 11.98153193 -17.04990583 10.72902454 -17.05197811 9.43856239 C-16.25932145 5.2540125 -14.71341353 3.78840366 -11.43115234 1.16113281 C-7.60171466 -0.11534641 -3.99086912 0.00548349 0 0 Z M4.56884766 21.16113281 C4.56884766 67.69113281 4.56884766 114.22113281 4.56884766 162.16113281 C25.35884766 162.16113281 46.14884766 162.16113281 67.56884766 162.16113281 C67.56884766 115.63113281 67.56884766 69.10113281 67.56884766 21.16113281 C46.77884766 21.16113281 25.98884766 21.16113281 4.56884766 21.16113281 Z M88.56884766 31.16113281 C88.56884766 70.76113281 88.56884766 110.36113281 88.56884766 151.16113281 C104.88322266 155.24488281 121.19759766 159.32863281 138.00634766 163.53613281 C143.06261475 164.80247559 148.11888184 166.06881836 153.32836914 167.37353516 C159.75840823 168.98373148 166.18908989 170.59108592 172.62217712 172.1890564 C174.91544055 172.75883096 177.20869924 173.32862455 179.50195312 173.8984375 C181.15972511 174.3101504 181.15972511 174.3101504 182.85098743 174.73018074 C189.12165471 176.29106 195.38440204 177.87917897 201.64033794 179.49807549 C205.36419462 180.45942554 209.09180809 181.40561388 212.82017708 182.34929276 C214.5115655 182.78146924 216.20119694 183.22060028 217.88870049 183.66770554 C231.88126201 187.3715988 247.2530393 190.56043536 260.56884766 183.16113281 C261.33696777 182.74476563 262.10508789 182.32839844 262.89648438 181.89941406 C265.30236032 180.53915923 267.6555605 179.11435534 270.00634766 177.66113281 C270.86542725 177.13777344 271.72450684 176.61441406 272.60961914 176.07519531 C280.87022218 171.02381805 289.05569964 165.85257689 297.22314453 160.65234375 C300.3224384 158.68205993 303.42897822 156.72338041 306.53588867 154.76513672 C308.91670839 153.26383497 311.29570222 151.75967611 313.67431641 150.25488281 C316.94400983 148.18636806 320.21806105 146.12498749 323.49462891 144.06738281 C339.14343174 134.20808565 354.50790128 123.93179617 369.87133789 113.63598633 C372.22485313 112.05936036 374.58078075 110.48649948 376.94018555 108.91870117 C407.21755316 88.90444051 407.21755316 88.90444051 434.56884766 65.16113281 C434.91375088 61.10851994 434.87048648 59.61359105 432.56884766 56.16113281 C426.25389911 54.06456784 421.07927695 55.55969214 415.30322266 58.29785156 C414.52904999 58.64406555 413.75487732 58.99027954 412.95724487 59.34698486 C410.40195366 60.49503486 407.86098239 61.67177331 405.31884766 62.84863281 C403.5012737 63.67112523 401.68272907 64.49147558 399.86328125 65.30981445 C396.03435407 67.03493481 392.21054528 68.77074707 388.39013672 70.51464844 C379.95150947 74.36048257 371.46803864 78.10496969 362.98855591 81.85958862 C360.19423257 83.09846216 357.40161982 84.34110668 354.60961914 85.58520508 C344.83011521 89.94283346 335.0412475 94.27782244 325.23681641 98.57910156 C323.22881413 99.4612829 321.22083846 100.34352481 319.21289062 101.22583008 C316.31681769 102.49830689 313.42011091 103.76920951 310.52105713 105.03488159 C307.87503498 106.19010551 305.23149527 107.35084197 302.58837891 108.51269531 C301.80109909 108.85443283 301.01381927 109.19617035 300.2026825 109.54826355 C296.0619574 111.35558282 296.0619574 111.35558282 292.56884766 114.16113281 C292.17618809 115.6515195 291.82830589 117.15389132 291.50634766 118.66113281 C289.43474821 125.88034302 284.62335716 131.44343623 278.41259766 135.60644531 C276.49155076 136.60391197 274.60153177 137.42158178 272.56884766 138.16113281 C271.05291016 138.74894531 271.05291016 138.74894531 269.50634766 139.34863281 C257.82688213 142.57912328 245.34975868 141.29169283 233.44384766 140.03613281 C232.214646 139.90706543 230.98544434 139.77799805 229.71899414 139.64501953 C213.8865454 137.87630685 198.2152466 135.13021223 182.56884766 132.16113281 C180.78244873 131.8239624 180.78244873 131.8239624 178.95996094 131.47998047 C175.86451481 130.88125782 172.77847465 130.2505562 169.69384766 129.59863281 C168.82123291 129.42541504 167.94861816 129.25219727 167.04956055 129.07373047 C161.91209273 127.91958243 158.8592025 126.53513745 155.56884766 122.16113281 C154.63570918 118.65696943 155.22976729 115.23488729 156.31884766 111.78613281 C157.9504577 109.66503976 159.00819953 108.99161328 161.56884766 108.16113281 C166.48408649 107.95598804 170.80273411 108.47093855 175.59228516 109.55175781 C176.94406934 109.85044347 178.29587693 110.14902316 179.64770508 110.44750977 C180.34834076 110.60498688 181.04897644 110.76246399 181.77084351 110.92471313 C224.8205058 122.4863333 224.8205058 122.4863333 267.56884766 118.16113281 C270.55647641 115.829325 271.37213599 114.75126782 272.56884766 111.16113281 C273.04269982 106.1429607 273.36824484 101.6959754 271.00634766 97.16113281 C265.64084165 92.75866635 259.87186187 91.64989405 253.17041016 90.91503906 C252.37718353 90.81779037 251.58395691 90.72054169 250.76669312 90.62034607 C248.24349026 90.31146479 245.71901735 90.01596734 243.19384766 89.72363281 C212.46784168 86.15609244 187.43793021 77.9960285 162.42871094 59.53076172 C138.82960946 42.15205874 118.52807869 31.16113281 88.56884766 31.16113281 Z " fill="#000000" transform="translate(36.43115234375,274.8388671875)"/>
<path d="M0 0 C3.28070383 2.57273813 6.29074593 5.25196082 9.1875 8.25 C12.17327503 6.90705315 14.22439051 5.3996314 16.5625 3.125 C32.19862506 -10.82544615 53.37411341 -17.36745165 74 -17.1875 C75.22541504 -17.17992676 76.45083008 -17.17235352 77.71337891 -17.16455078 C87.13903717 -16.99362885 95.31014877 -15.96992062 104.1875 -12.75 C105.37988281 -12.32589844 106.57226562 -11.90179688 107.80078125 -11.46484375 C129.28256261 -3.0364727 147.11609095 13.89172266 156.84765625 34.8203125 C167.21993363 59.05052975 168.35870767 85.93977883 158.65063477 110.55786133 C150.98777281 129.02395113 139.05973914 142.88264163 124.97973633 156.73901367 C122.98436655 158.70288668 121.00018024 160.67754243 119.01757812 162.65429688 C113.44298752 168.1947735 107.87485244 173.70104846 101.88549805 178.79711914 C98.8988663 181.35261095 96.05437074 184.0619033 93.1875 186.75 C87.7699542 191.80108997 82.2896783 196.74600149 76.65722656 201.55712891 C74.87529854 203.07934067 73.09381399 204.60206974 71.3125 206.125 C70.70365967 206.64497559 70.09481934 207.16495117 69.4675293 207.70068359 C65.93049739 210.72944776 62.44323515 213.80179463 59 216.9375 C54.86644446 220.68856745 50.58894125 224.21757791 46.24609375 227.72265625 C43.28856411 230.16648981 40.40419949 232.67573772 37.52539062 235.2109375 C19.84067909 250.76644496 19.84067909 250.76644496 7.81640625 250.50390625 C-2.18469158 249.53797555 -8.96480501 242.12215746 -16.11083984 235.74560547 C-18.5156258 233.63201597 -21.00338699 231.62871946 -23.5 229.625 C-28.18988445 225.82090632 -32.63298589 221.79648329 -37.07421875 217.70703125 C-39.69410046 215.35623867 -42.37802219 213.13749541 -45.125 210.9375 C-50.87021486 206.30346566 -56.21857516 201.29682846 -61.59765625 196.25 C-64.5955904 193.43981526 -67.66400417 190.72508363 -70.7734375 188.0390625 C-74.47866614 184.78811477 -78.09110817 181.43486219 -81.71484375 178.09375 C-83.61016248 176.34764593 -85.51757536 174.62140384 -87.44140625 172.90625 C-120.03072185 143.68497138 -120.03072185 143.68497138 -129.8125 127.25 C-130.16795898 126.66379883 -130.52341797 126.07759766 -130.88964844 125.47363281 C-144.77839398 102.28471753 -148.18437995 75.48284038 -141.8125 49.25 C-140.42757207 44.76683123 -138.75091146 40.52029151 -136.8125 36.25 C-136.43222656 35.38117188 -136.05195313 34.51234375 -135.66015625 33.6171875 C-132.53029546 26.89378284 -128.3470818 21.09437137 -123.8125 15.25 C-123.33039063 14.61191406 -122.84828125 13.97382812 -122.3515625 13.31640625 C-93.25168688 -23.10049012 -36.28830846 -26.76428097 0 0 Z M-107.1171875 28.75390625 C-118.77921648 42.46229126 -125.19329568 61.22434003 -123.8125 79.25 C-122.50770127 89.58564982 -120.45784862 98.83881822 -115.8125 108.25 C-115.41675781 109.12527344 -115.02101562 110.00054687 -114.61328125 110.90234375 C-105.5490661 129.43907202 -87.15322849 145.28482288 -71.77075195 158.5390625 C-67.6734156 162.11893199 -63.76192975 165.90337221 -59.8125 169.64453125 C-53.04458305 176.02910915 -46.01819233 182.09224607 -38.9375 188.125 C-34.78043311 191.67401333 -30.66674498 195.25674022 -26.625 198.9375 C-22.38676579 202.78728722 -17.98626491 206.39639265 -13.53515625 209.99609375 C-10.87112647 212.20146704 -8.30461558 214.4817631 -5.75 216.8125 C-0.94814057 221.19043926 4.06731739 225.25189996 9.1875 229.25 C18.95365194 224.87206982 27.30945464 215.58932675 35.34375 208.58984375 C39.04237997 205.36945263 42.76923568 202.18304005 46.5 199 C51.38654226 194.82493177 56.20025576 190.58044795 60.9609375 186.26171875 C63.01854391 184.40265331 65.09596763 182.57071642 67.1875 180.75 C75.46063467 173.53582657 83.54840966 166.11464255 91.62548828 158.68261719 C93.17132553 157.2648346 94.72359905 155.85442019 96.27734375 154.4453125 C117.15263601 135.45301705 138.06085695 116.33044073 143.1875 87.25 C143.38085938 86.16332031 143.38085938 86.16332031 143.578125 85.0546875 C146.25792115 67.07184489 141.75891694 48.38786202 131.4375 33.5 C119.55411372 18.20210575 104.50655551 7.64381479 85.1875 4.25 C63.78823427 2.6484239 45.53854621 6.57269206 28.87109375 20.796875 C25.18086172 24.17018754 21.65406851 27.68306177 18.18359375 31.28125 C15.45682289 33.97066783 14.45180879 34.21354361 10.5625 34.75 C5.77152848 34.6808163 3.5131109 32.52442901 0.1640625 29.3046875 C-1.10283844 27.98771142 -2.3591334 26.66039978 -3.6015625 25.3203125 C-14.22839678 14.06039022 -29.4819357 5.14621803 -45.20922852 4.08886719 C-71.06003342 3.65153676 -89.44618445 9.55540972 -107.1171875 28.75390625 Z " fill="#000000" transform="translate(253.8125,45.75)"/>
</svg>
